M48
INCH,TZ
T1C0.024
T2C0.032
T3C0.036
T4C0.040
%
G90
G05
T1
X5.0147Y-4.6632
X5.1147Y-4.6632
X5.2147Y-4.6632
X5.253Y-3.6213
X5.253Y-3.7213
X5.253Y-3.8213
X6.1467Y-4.3776
X6.2467Y-4.3776
X6.3467Y-4.3776
X6.5405Y-3.7963
X6.6405Y-3.7963
X6.7405Y-3.7963
T2
X4.928Y-4.4026
X5.128Y-4.4026
X5.2255Y-4.4088
X5.3055Y-4.4088
X5.3092Y-4.0588
X5.3092Y-4.2588
X5.7092Y-4.3963
X5.8092Y-4.2963
X5.8092Y-4.4963
X5.928Y-3.9088
X6.028Y-3.8088
X6.028Y-4.0088
X6.6592Y-3.9901
X6.6592Y-4.5901
T3
X5.028Y-3.7276
X5.028Y-4.2276
X5.528Y-3.5838
X5.528Y-4.0838
X5.528Y-4.1713
X5.528Y-4.6713
X5.7342Y-3.6463
X5.7342Y-4.1463
X6.0967Y-3.5963
X6.303Y-3.7713
X6.303Y-4.2713
X6.5967Y-3.5963
T4
X5.0342Y-3.6276
X5.878Y-3.6213
X5.978Y-3.6213
X6.4155Y-4.6713
T0
M30
