G04 #@! TF.FileFunction,Copper,L2,Bot,Signal*
%FSLAX46Y46*%
G04 Gerber Fmt 4.6, Leading zero omitted, Abs format (unit mm)*
G04 Created by KiCad (PCBNEW 4.0.7) date 03/29/18 03:52:59*
%MOMM*%
%LPD*%
G01*
G04 APERTURE LIST*
%ADD10C,0.100000*%
%ADD11C,1.320800*%
%ADD12C,1.270000*%
%ADD13C,2.159000*%
%ADD14C,1.524000*%
%ADD15C,1.422400*%
%ADD16C,1.117600*%
%ADD17O,1.524000X3.048000*%
%ADD18C,0.152400*%
G04 APERTURE END LIST*
D10*
D11*
X125171100Y-111824850D03*
X130251100Y-111824850D03*
X134854850Y-103093600D03*
X134854850Y-108173600D03*
D12*
X134759600Y-111983600D03*
X132727600Y-111983600D03*
D13*
X169144850Y-116587350D03*
X169144850Y-101347350D03*
D14*
X127869850Y-92139850D03*
X162953600Y-118651100D03*
D11*
X147554850Y-109126100D03*
X145014850Y-111666100D03*
X147554850Y-114206100D03*
X153111100Y-96743600D03*
X150571100Y-99283600D03*
X153111100Y-101823600D03*
D15*
X127711100Y-107379850D03*
X127711100Y-94679850D03*
D16*
X161207350Y-111189850D03*
X158667350Y-111189850D03*
X156127350Y-111189850D03*
D15*
X145649850Y-105316100D03*
X145649850Y-92616100D03*
X154857350Y-91346100D03*
X167557350Y-91346100D03*
X160096100Y-108491100D03*
X160096100Y-95791100D03*
X140411100Y-118651100D03*
X140411100Y-105951100D03*
D16*
X133426100Y-91981100D03*
X133426100Y-94521100D03*
X133426100Y-97061100D03*
X127373600Y-118444850D03*
X129913600Y-118444850D03*
X132453600Y-118444850D03*
X171208600Y-96426100D03*
X168668600Y-96426100D03*
X166128600Y-96426100D03*
D15*
X140411100Y-91028600D03*
X140411100Y-103728600D03*
D17*
X149301100Y-91981100D03*
X151841100Y-91981100D03*
D18*
G36*
X171030411Y-89542869D02*
X170854888Y-89799213D01*
X170732499Y-90084768D01*
X170667906Y-90388657D01*
X170663568Y-90699304D01*
X170719651Y-91004877D01*
X170834019Y-91293738D01*
X171002316Y-91554883D01*
X171218131Y-91778366D01*
X171473243Y-91955674D01*
X171757937Y-92080054D01*
X172061367Y-92146767D01*
X172371976Y-92153273D01*
X172677934Y-92099325D01*
X172967586Y-91986976D01*
X173229900Y-91820507D01*
X173394400Y-91663855D01*
X173394400Y-118470314D01*
X173264543Y-118339547D01*
X173006980Y-118165818D01*
X172720577Y-118045426D01*
X172416245Y-117982955D01*
X172105575Y-117980786D01*
X171800401Y-118039002D01*
X171512345Y-118155384D01*
X171252381Y-118325499D01*
X171030411Y-118542869D01*
X170854888Y-118799213D01*
X170732499Y-119084768D01*
X170667906Y-119388657D01*
X170663568Y-119699304D01*
X170719651Y-120004877D01*
X170834019Y-120293738D01*
X170987504Y-120531900D01*
X126007337Y-120531900D01*
X126133969Y-120352389D01*
X126260333Y-120068571D01*
X126329163Y-119765614D01*
X126334118Y-119410761D01*
X126273773Y-119106000D01*
X126155383Y-118818765D01*
X125983457Y-118559995D01*
X125964552Y-118540957D01*
X126229098Y-118540957D01*
X126269562Y-118761428D01*
X126352079Y-118969841D01*
X126473505Y-119158257D01*
X126629215Y-119319500D01*
X126813279Y-119447427D01*
X127018685Y-119537167D01*
X127237609Y-119585301D01*
X127461714Y-119589995D01*
X127682462Y-119551071D01*
X127891446Y-119470012D01*
X128080706Y-119349904D01*
X128243032Y-119195323D01*
X128372241Y-119012157D01*
X128463413Y-118807382D01*
X128513073Y-118588799D01*
X128513741Y-118540957D01*
X128769098Y-118540957D01*
X128809562Y-118761428D01*
X128892079Y-118969841D01*
X129013505Y-119158257D01*
X129169215Y-119319500D01*
X129353279Y-119447427D01*
X129558685Y-119537167D01*
X129777609Y-119585301D01*
X130001714Y-119589995D01*
X130222462Y-119551071D01*
X130431446Y-119470012D01*
X130620706Y-119349904D01*
X130783032Y-119195323D01*
X130912241Y-119012157D01*
X131003413Y-118807382D01*
X131053073Y-118588799D01*
X131053741Y-118540957D01*
X131309098Y-118540957D01*
X131349562Y-118761428D01*
X131432079Y-118969841D01*
X131553505Y-119158257D01*
X131709215Y-119319500D01*
X131893279Y-119447427D01*
X132098685Y-119537167D01*
X132317609Y-119585301D01*
X132541714Y-119589995D01*
X132762462Y-119551071D01*
X132971446Y-119470012D01*
X133160706Y-119349904D01*
X133323032Y-119195323D01*
X133452241Y-119012157D01*
X133543413Y-118807382D01*
X133554172Y-118760021D01*
X139113997Y-118760021D01*
X139159856Y-119009888D01*
X139253375Y-119246090D01*
X139390991Y-119459628D01*
X139567463Y-119642370D01*
X139776069Y-119787355D01*
X140008862Y-119889060D01*
X140256977Y-119943611D01*
X140510963Y-119948932D01*
X140761144Y-119904818D01*
X140997993Y-119812950D01*
X141212487Y-119676828D01*
X141396456Y-119501637D01*
X141542894Y-119294048D01*
X141646222Y-119061970D01*
X141702504Y-118814242D01*
X141703201Y-118764292D01*
X161605630Y-118764292D01*
X161653288Y-119023959D01*
X161750474Y-119269423D01*
X161893487Y-119491335D01*
X162076879Y-119681244D01*
X162293665Y-119831914D01*
X162535588Y-119937607D01*
X162793433Y-119994298D01*
X163057379Y-119999827D01*
X163317372Y-119953983D01*
X163563508Y-119858513D01*
X163786414Y-119717053D01*
X163977598Y-119534991D01*
X164129778Y-119319262D01*
X164237158Y-119078083D01*
X164295647Y-118820640D01*
X164299858Y-118519098D01*
X164248579Y-118260123D01*
X164147976Y-118016039D01*
X164001878Y-117796145D01*
X163815852Y-117608816D01*
X163596984Y-117461187D01*
X163353608Y-117358882D01*
X163094997Y-117305796D01*
X162831000Y-117303953D01*
X162571673Y-117353423D01*
X162326893Y-117452320D01*
X162105984Y-117596879D01*
X161917361Y-117781592D01*
X161768208Y-117999425D01*
X161664206Y-118242080D01*
X161609316Y-118500314D01*
X161605630Y-118764292D01*
X141703201Y-118764292D01*
X141706556Y-118524079D01*
X141657212Y-118274877D01*
X141560405Y-118040004D01*
X141419820Y-117828408D01*
X141240814Y-117648148D01*
X141030205Y-117506090D01*
X140796014Y-117407645D01*
X140547161Y-117356563D01*
X140293126Y-117354789D01*
X140043585Y-117402392D01*
X139808042Y-117497557D01*
X139595470Y-117636661D01*
X139413964Y-117814404D01*
X139270440Y-118024017D01*
X139170362Y-118257515D01*
X139117544Y-118506004D01*
X139113997Y-118760021D01*
X133554172Y-118760021D01*
X133593073Y-118588799D01*
X133596649Y-118332773D01*
X133553110Y-118112888D01*
X133467692Y-117905648D01*
X133343647Y-117718945D01*
X133185701Y-117559892D01*
X132999869Y-117434547D01*
X132793230Y-117347684D01*
X132573654Y-117302612D01*
X132349506Y-117301047D01*
X132129322Y-117343049D01*
X131921491Y-117427019D01*
X131733927Y-117549757D01*
X131573775Y-117706589D01*
X131447135Y-117891541D01*
X131358832Y-118097569D01*
X131312228Y-118316825D01*
X131309098Y-118540957D01*
X131053741Y-118540957D01*
X131056649Y-118332773D01*
X131013110Y-118112888D01*
X130927692Y-117905648D01*
X130803647Y-117718945D01*
X130645701Y-117559892D01*
X130459869Y-117434547D01*
X130253230Y-117347684D01*
X130033654Y-117302612D01*
X129809506Y-117301047D01*
X129589322Y-117343049D01*
X129381491Y-117427019D01*
X129193927Y-117549757D01*
X129033775Y-117706589D01*
X128907135Y-117891541D01*
X128818832Y-118097569D01*
X128772228Y-118316825D01*
X128769098Y-118540957D01*
X128513741Y-118540957D01*
X128516649Y-118332773D01*
X128473110Y-118112888D01*
X128387692Y-117905648D01*
X128263647Y-117718945D01*
X128105701Y-117559892D01*
X127919869Y-117434547D01*
X127713230Y-117347684D01*
X127493654Y-117302612D01*
X127269506Y-117301047D01*
X127049322Y-117343049D01*
X126841491Y-117427019D01*
X126653927Y-117549757D01*
X126493775Y-117706589D01*
X126367135Y-117891541D01*
X126278832Y-118097569D01*
X126232228Y-118316825D01*
X126229098Y-118540957D01*
X125964552Y-118540957D01*
X125764543Y-118339547D01*
X125506980Y-118165818D01*
X125220577Y-118045426D01*
X124916245Y-117982955D01*
X124605575Y-117980786D01*
X124300401Y-118039002D01*
X124012345Y-118155384D01*
X123752381Y-118325499D01*
X123607800Y-118467084D01*
X123607800Y-116727238D01*
X167478963Y-116727238D01*
X167537861Y-117048147D01*
X167657968Y-117351503D01*
X167834710Y-117625754D01*
X168061356Y-117860452D01*
X168329271Y-118046657D01*
X168628251Y-118177279D01*
X168946908Y-118247340D01*
X169273105Y-118254173D01*
X169594417Y-118197517D01*
X169898605Y-118079530D01*
X170174082Y-117904707D01*
X170410356Y-117679706D01*
X170598428Y-117413097D01*
X170731133Y-117115036D01*
X170803418Y-116796876D01*
X170808621Y-116424216D01*
X170745249Y-116104161D01*
X170620918Y-115802511D01*
X170440363Y-115530755D01*
X170210464Y-115299244D01*
X169939975Y-115116797D01*
X169639200Y-114990363D01*
X169319595Y-114924758D01*
X168993335Y-114922480D01*
X168672846Y-114983617D01*
X168370335Y-115105839D01*
X168097325Y-115284492D01*
X167864215Y-115512770D01*
X167679884Y-115781978D01*
X167551354Y-116081863D01*
X167483518Y-116401002D01*
X167478963Y-116727238D01*
X123607800Y-116727238D01*
X123607800Y-114310749D01*
X146308614Y-114310749D01*
X146352675Y-114550818D01*
X146442526Y-114777757D01*
X146574746Y-114982921D01*
X146744297Y-115158497D01*
X146944722Y-115297796D01*
X147168387Y-115395512D01*
X147406771Y-115447925D01*
X147650797Y-115453036D01*
X147891167Y-115410652D01*
X148118727Y-115322387D01*
X148324810Y-115191604D01*
X148501565Y-115023282D01*
X148642259Y-114823835D01*
X148741535Y-114600858D01*
X148795610Y-114362844D01*
X148799503Y-114084061D01*
X148752095Y-113844630D01*
X148659084Y-113618969D01*
X148524013Y-113415670D01*
X148352026Y-113242479D01*
X148149676Y-113105992D01*
X147924669Y-113011408D01*
X147685576Y-112962329D01*
X147441503Y-112960625D01*
X147201748Y-113006361D01*
X146975442Y-113097794D01*
X146771205Y-113231443D01*
X146596818Y-113402216D01*
X146458922Y-113603608D01*
X146362769Y-113827950D01*
X146312022Y-114066695D01*
X146308614Y-114310749D01*
X123607800Y-114310749D01*
X123607800Y-111929499D01*
X123924864Y-111929499D01*
X123968925Y-112169568D01*
X124058776Y-112396507D01*
X124190996Y-112601671D01*
X124360547Y-112777247D01*
X124560972Y-112916546D01*
X124784637Y-113014262D01*
X125023021Y-113066675D01*
X125267047Y-113071786D01*
X125507417Y-113029402D01*
X125734977Y-112941137D01*
X125941060Y-112810354D01*
X126117815Y-112642032D01*
X126258509Y-112442585D01*
X126357785Y-112219608D01*
X126411860Y-111981594D01*
X126412587Y-111929499D01*
X129004864Y-111929499D01*
X129048925Y-112169568D01*
X129138776Y-112396507D01*
X129270996Y-112601671D01*
X129440547Y-112777247D01*
X129640972Y-112916546D01*
X129864637Y-113014262D01*
X130103021Y-113066675D01*
X130347047Y-113071786D01*
X130587417Y-113029402D01*
X130814977Y-112941137D01*
X131021060Y-112810354D01*
X131197815Y-112642032D01*
X131338509Y-112442585D01*
X131437785Y-112219608D01*
X131468113Y-112086114D01*
X131506798Y-112086114D01*
X131549959Y-112321283D01*
X131637977Y-112543590D01*
X131767498Y-112744568D01*
X131933589Y-112916560D01*
X132129924Y-113053016D01*
X132349024Y-113148738D01*
X132582543Y-113200081D01*
X132821588Y-113205088D01*
X133057053Y-113163569D01*
X133279970Y-113077106D01*
X133481846Y-112948991D01*
X133654994Y-112784105D01*
X133743825Y-112658179D01*
X133799498Y-112744568D01*
X133965589Y-112916560D01*
X134161924Y-113053016D01*
X134381024Y-113148738D01*
X134614543Y-113200081D01*
X134853588Y-113205088D01*
X135089053Y-113163569D01*
X135311970Y-113077106D01*
X135513846Y-112948991D01*
X135686994Y-112784105D01*
X135824817Y-112588728D01*
X135922067Y-112370301D01*
X135975039Y-112137146D01*
X135978852Y-111864051D01*
X135960378Y-111770749D01*
X143768614Y-111770749D01*
X143812675Y-112010818D01*
X143902526Y-112237757D01*
X144034746Y-112442921D01*
X144204297Y-112618497D01*
X144404722Y-112757796D01*
X144628387Y-112855512D01*
X144866771Y-112907925D01*
X145110797Y-112913036D01*
X145351167Y-112870652D01*
X145578727Y-112782387D01*
X145784810Y-112651604D01*
X145961565Y-112483282D01*
X146102259Y-112283835D01*
X146201535Y-112060858D01*
X146255610Y-111822844D01*
X146256585Y-111752988D01*
X155599568Y-111752988D01*
X155653200Y-111884993D01*
X155797927Y-111964138D01*
X155955312Y-112013528D01*
X156119309Y-112031264D01*
X156283616Y-112016665D01*
X156441916Y-111970292D01*
X156588129Y-111893928D01*
X156601500Y-111884993D01*
X156655132Y-111752988D01*
X156127350Y-111225205D01*
X155599568Y-111752988D01*
X146256585Y-111752988D01*
X146259503Y-111544061D01*
X146212095Y-111304630D01*
X146161472Y-111181809D01*
X155285936Y-111181809D01*
X155300535Y-111346116D01*
X155346908Y-111504416D01*
X155423272Y-111650629D01*
X155432207Y-111664000D01*
X155564212Y-111717632D01*
X156091995Y-111189850D01*
X156162705Y-111189850D01*
X156690488Y-111717632D01*
X156822493Y-111664000D01*
X156901638Y-111519273D01*
X156951028Y-111361888D01*
X156959239Y-111285957D01*
X157522848Y-111285957D01*
X157563312Y-111506428D01*
X157645829Y-111714841D01*
X157767255Y-111903257D01*
X157922965Y-112064500D01*
X158107029Y-112192427D01*
X158312435Y-112282167D01*
X158531359Y-112330301D01*
X158755464Y-112334995D01*
X158976212Y-112296071D01*
X159185196Y-112215012D01*
X159374456Y-112094904D01*
X159536782Y-111940323D01*
X159665991Y-111757157D01*
X159757163Y-111552382D01*
X159806823Y-111333799D01*
X159807491Y-111285957D01*
X160062848Y-111285957D01*
X160103312Y-111506428D01*
X160185829Y-111714841D01*
X160307255Y-111903257D01*
X160462965Y-112064500D01*
X160647029Y-112192427D01*
X160852435Y-112282167D01*
X161071359Y-112330301D01*
X161295464Y-112334995D01*
X161516212Y-112296071D01*
X161725196Y-112215012D01*
X161914456Y-112094904D01*
X162076782Y-111940323D01*
X162205991Y-111757157D01*
X162297163Y-111552382D01*
X162346823Y-111333799D01*
X162350399Y-111077773D01*
X162306860Y-110857888D01*
X162221442Y-110650648D01*
X162097397Y-110463945D01*
X161939451Y-110304892D01*
X161753619Y-110179547D01*
X161546980Y-110092684D01*
X161327404Y-110047612D01*
X161103256Y-110046047D01*
X160883072Y-110088049D01*
X160675241Y-110172019D01*
X160487677Y-110294757D01*
X160327525Y-110451589D01*
X160200885Y-110636541D01*
X160112582Y-110842569D01*
X160065978Y-111061825D01*
X160062848Y-111285957D01*
X159807491Y-111285957D01*
X159810399Y-111077773D01*
X159766860Y-110857888D01*
X159681442Y-110650648D01*
X159557397Y-110463945D01*
X159399451Y-110304892D01*
X159213619Y-110179547D01*
X159006980Y-110092684D01*
X158787404Y-110047612D01*
X158563256Y-110046047D01*
X158343072Y-110088049D01*
X158135241Y-110172019D01*
X157947677Y-110294757D01*
X157787525Y-110451589D01*
X157660885Y-110636541D01*
X157572582Y-110842569D01*
X157525978Y-111061825D01*
X157522848Y-111285957D01*
X156959239Y-111285957D01*
X156968764Y-111197891D01*
X156954165Y-111033584D01*
X156907792Y-110875284D01*
X156831428Y-110729071D01*
X156822493Y-110715700D01*
X156690488Y-110662068D01*
X156162705Y-111189850D01*
X156091995Y-111189850D01*
X155564212Y-110662068D01*
X155432207Y-110715700D01*
X155353062Y-110860427D01*
X155303672Y-111017812D01*
X155285936Y-111181809D01*
X146161472Y-111181809D01*
X146119084Y-111078969D01*
X145984013Y-110875670D01*
X145812026Y-110702479D01*
X145699697Y-110626712D01*
X155599568Y-110626712D01*
X156127350Y-111154495D01*
X156655132Y-110626712D01*
X156601500Y-110494707D01*
X156456773Y-110415562D01*
X156299388Y-110366172D01*
X156135391Y-110348436D01*
X155971084Y-110363035D01*
X155812784Y-110409408D01*
X155666571Y-110485772D01*
X155653200Y-110494707D01*
X155599568Y-110626712D01*
X145699697Y-110626712D01*
X145609676Y-110565992D01*
X145384669Y-110471408D01*
X145145576Y-110422329D01*
X144901503Y-110420625D01*
X144661748Y-110466361D01*
X144435442Y-110557794D01*
X144231205Y-110691443D01*
X144056818Y-110862216D01*
X143918922Y-111063608D01*
X143822769Y-111287950D01*
X143772022Y-111526695D01*
X143768614Y-111770749D01*
X135960378Y-111770749D01*
X135932411Y-111629507D01*
X135841298Y-111408451D01*
X135708984Y-111209302D01*
X135540507Y-111039645D01*
X135342287Y-110905943D01*
X135121872Y-110813289D01*
X134887658Y-110765212D01*
X134648566Y-110763543D01*
X134413704Y-110808345D01*
X134192016Y-110897913D01*
X133991948Y-111028834D01*
X133821120Y-111196122D01*
X133743522Y-111309450D01*
X133676984Y-111209302D01*
X133508507Y-111039645D01*
X133310287Y-110905943D01*
X133089872Y-110813289D01*
X132855658Y-110765212D01*
X132616566Y-110763543D01*
X132381704Y-110808345D01*
X132160016Y-110897913D01*
X131959948Y-111028834D01*
X131789120Y-111196122D01*
X131654038Y-111393404D01*
X131559847Y-111613167D01*
X131510136Y-111847040D01*
X131506798Y-112086114D01*
X131468113Y-112086114D01*
X131491860Y-111981594D01*
X131495753Y-111702811D01*
X131448345Y-111463380D01*
X131355334Y-111237719D01*
X131220263Y-111034420D01*
X131048276Y-110861229D01*
X130845926Y-110724742D01*
X130620919Y-110630158D01*
X130381826Y-110581079D01*
X130137753Y-110579375D01*
X129897998Y-110625111D01*
X129671692Y-110716544D01*
X129467455Y-110850193D01*
X129293068Y-111020966D01*
X129155172Y-111222358D01*
X129059019Y-111446700D01*
X129008272Y-111685445D01*
X129004864Y-111929499D01*
X126412587Y-111929499D01*
X126415753Y-111702811D01*
X126368345Y-111463380D01*
X126275334Y-111237719D01*
X126140263Y-111034420D01*
X125968276Y-110861229D01*
X125765926Y-110724742D01*
X125540919Y-110630158D01*
X125301826Y-110581079D01*
X125057753Y-110579375D01*
X124817998Y-110625111D01*
X124591692Y-110716544D01*
X124387455Y-110850193D01*
X124213068Y-111020966D01*
X124075172Y-111222358D01*
X123979019Y-111446700D01*
X123928272Y-111685445D01*
X123924864Y-111929499D01*
X123607800Y-111929499D01*
X123607800Y-109761460D01*
X146954845Y-109761460D01*
X147020669Y-109903869D01*
X147182669Y-109993139D01*
X147358971Y-110049087D01*
X147542800Y-110069566D01*
X147727093Y-110053789D01*
X147904766Y-110002361D01*
X148068992Y-109917258D01*
X148089031Y-109903869D01*
X148154855Y-109761460D01*
X147554850Y-109161455D01*
X146954845Y-109761460D01*
X123607800Y-109761460D01*
X123607800Y-108808960D01*
X134254845Y-108808960D01*
X134320669Y-108951369D01*
X134482669Y-109040639D01*
X134658971Y-109096587D01*
X134842800Y-109117066D01*
X134878030Y-109114050D01*
X146611384Y-109114050D01*
X146627161Y-109298343D01*
X146678589Y-109476016D01*
X146763692Y-109640242D01*
X146777081Y-109660281D01*
X146919490Y-109726105D01*
X147519495Y-109126100D01*
X147590205Y-109126100D01*
X148190210Y-109726105D01*
X148332619Y-109660281D01*
X148421889Y-109498281D01*
X148477837Y-109321979D01*
X148498316Y-109138150D01*
X148482539Y-108953857D01*
X148431111Y-108776184D01*
X148346008Y-108611958D01*
X148338033Y-108600021D01*
X158798997Y-108600021D01*
X158844856Y-108849888D01*
X158938375Y-109086090D01*
X159075991Y-109299628D01*
X159252463Y-109482370D01*
X159461069Y-109627355D01*
X159693862Y-109729060D01*
X159941977Y-109783611D01*
X160195963Y-109788932D01*
X160446144Y-109744818D01*
X160682993Y-109652950D01*
X160897487Y-109516828D01*
X161081456Y-109341637D01*
X161227894Y-109134048D01*
X161331222Y-108901970D01*
X161387504Y-108654242D01*
X161391556Y-108364079D01*
X161342212Y-108114877D01*
X161245405Y-107880004D01*
X161104820Y-107668408D01*
X160925814Y-107488148D01*
X160715205Y-107346090D01*
X160481014Y-107247645D01*
X160232161Y-107196563D01*
X159978126Y-107194789D01*
X159728585Y-107242392D01*
X159493042Y-107337557D01*
X159280470Y-107476661D01*
X159098964Y-107654404D01*
X158955440Y-107864017D01*
X158855362Y-108097515D01*
X158802544Y-108346004D01*
X158798997Y-108600021D01*
X148338033Y-108600021D01*
X148332619Y-108591919D01*
X148190210Y-108526095D01*
X147590205Y-109126100D01*
X147519495Y-109126100D01*
X146919490Y-108526095D01*
X146777081Y-108591919D01*
X146687811Y-108753919D01*
X146631863Y-108930221D01*
X146611384Y-109114050D01*
X134878030Y-109114050D01*
X135027093Y-109101289D01*
X135204766Y-109049861D01*
X135368992Y-108964758D01*
X135389031Y-108951369D01*
X135454855Y-108808960D01*
X134854850Y-108208955D01*
X134254845Y-108808960D01*
X123607800Y-108808960D01*
X123607800Y-108051319D01*
X127074986Y-108051319D01*
X127146905Y-108198930D01*
X127317541Y-108293260D01*
X127503300Y-108352489D01*
X127697046Y-108374339D01*
X127891331Y-108357972D01*
X128078689Y-108304016D01*
X128251922Y-108214546D01*
X128275295Y-108198930D01*
X128293507Y-108161550D01*
X133911384Y-108161550D01*
X133927161Y-108345843D01*
X133978589Y-108523516D01*
X134063692Y-108687742D01*
X134077081Y-108707781D01*
X134219490Y-108773605D01*
X134819495Y-108173600D01*
X134890205Y-108173600D01*
X135490210Y-108773605D01*
X135632619Y-108707781D01*
X135721889Y-108545781D01*
X135739355Y-108490740D01*
X146954845Y-108490740D01*
X147554850Y-109090745D01*
X148154855Y-108490740D01*
X148089031Y-108348331D01*
X147927031Y-108259061D01*
X147750729Y-108203113D01*
X147566900Y-108182634D01*
X147382607Y-108198411D01*
X147204934Y-108249839D01*
X147040708Y-108334942D01*
X147020669Y-108348331D01*
X146954845Y-108490740D01*
X135739355Y-108490740D01*
X135777837Y-108369479D01*
X135798316Y-108185650D01*
X135782539Y-108001357D01*
X135731111Y-107823684D01*
X135646008Y-107659458D01*
X135632619Y-107639419D01*
X135490210Y-107573595D01*
X134890205Y-108173600D01*
X134819495Y-108173600D01*
X134219490Y-107573595D01*
X134077081Y-107639419D01*
X133987811Y-107801419D01*
X133931863Y-107977721D01*
X133911384Y-108161550D01*
X128293507Y-108161550D01*
X128347214Y-108051319D01*
X127711100Y-107415205D01*
X127074986Y-108051319D01*
X123607800Y-108051319D01*
X123607800Y-107365796D01*
X126716611Y-107365796D01*
X126732978Y-107560081D01*
X126786934Y-107747439D01*
X126876404Y-107920672D01*
X126892020Y-107944045D01*
X127039631Y-108015964D01*
X127675745Y-107379850D01*
X127746455Y-107379850D01*
X128382569Y-108015964D01*
X128530180Y-107944045D01*
X128624510Y-107773409D01*
X128683739Y-107587650D01*
X128689311Y-107538240D01*
X134254845Y-107538240D01*
X134854850Y-108138245D01*
X135454855Y-107538240D01*
X135389031Y-107395831D01*
X135227031Y-107306561D01*
X135050729Y-107250613D01*
X134866900Y-107230134D01*
X134682607Y-107245911D01*
X134504934Y-107297339D01*
X134340708Y-107382442D01*
X134320669Y-107395831D01*
X134254845Y-107538240D01*
X128689311Y-107538240D01*
X128705589Y-107393904D01*
X128689222Y-107199619D01*
X128635266Y-107012261D01*
X128545796Y-106839028D01*
X128530180Y-106815655D01*
X128382569Y-106743736D01*
X127746455Y-107379850D01*
X127675745Y-107379850D01*
X127039631Y-106743736D01*
X126892020Y-106815655D01*
X126797690Y-106986291D01*
X126738461Y-107172050D01*
X126716611Y-107365796D01*
X123607800Y-107365796D01*
X123607800Y-106708381D01*
X127074986Y-106708381D01*
X127711100Y-107344495D01*
X128347214Y-106708381D01*
X128275295Y-106560770D01*
X128104659Y-106466440D01*
X127918900Y-106407211D01*
X127725154Y-106385361D01*
X127530869Y-106401728D01*
X127343511Y-106455684D01*
X127170278Y-106545154D01*
X127146905Y-106560770D01*
X127074986Y-106708381D01*
X123607800Y-106708381D01*
X123607800Y-103198249D01*
X133608614Y-103198249D01*
X133652675Y-103438318D01*
X133742526Y-103665257D01*
X133874746Y-103870421D01*
X134044297Y-104045997D01*
X134244722Y-104185296D01*
X134468387Y-104283012D01*
X134706771Y-104335425D01*
X134950797Y-104340536D01*
X135191167Y-104298152D01*
X135418727Y-104209887D01*
X135624810Y-104079104D01*
X135801565Y-103910782D01*
X135853244Y-103837521D01*
X139113997Y-103837521D01*
X139159856Y-104087388D01*
X139253375Y-104323590D01*
X139390991Y-104537128D01*
X139567463Y-104719870D01*
X139741702Y-104840969D01*
X139595470Y-104936661D01*
X139413964Y-105114404D01*
X139270440Y-105324017D01*
X139170362Y-105557515D01*
X139117544Y-105806004D01*
X139113997Y-106060021D01*
X139159856Y-106309888D01*
X139253375Y-106546090D01*
X139390991Y-106759628D01*
X139567463Y-106942370D01*
X139776069Y-107087355D01*
X140008862Y-107189060D01*
X140256977Y-107243611D01*
X140510963Y-107248932D01*
X140761144Y-107204818D01*
X140997993Y-107112950D01*
X141212487Y-106976828D01*
X141396456Y-106801637D01*
X141542894Y-106594048D01*
X141646222Y-106361970D01*
X141702504Y-106114242D01*
X141706556Y-105824079D01*
X141657212Y-105574877D01*
X141595447Y-105425021D01*
X144352747Y-105425021D01*
X144398606Y-105674888D01*
X144492125Y-105911090D01*
X144629741Y-106124628D01*
X144806213Y-106307370D01*
X145014819Y-106452355D01*
X145247612Y-106554060D01*
X145495727Y-106608611D01*
X145749713Y-106613932D01*
X145999894Y-106569818D01*
X146236743Y-106477950D01*
X146451237Y-106341828D01*
X146635206Y-106166637D01*
X146781644Y-105959048D01*
X146884972Y-105726970D01*
X146941254Y-105479242D01*
X146945306Y-105189079D01*
X146895962Y-104939877D01*
X146799155Y-104705004D01*
X146658570Y-104493408D01*
X146479564Y-104313148D01*
X146268955Y-104171090D01*
X146034764Y-104072645D01*
X145785911Y-104021563D01*
X145531876Y-104019789D01*
X145282335Y-104067392D01*
X145046792Y-104162557D01*
X144834220Y-104301661D01*
X144652714Y-104479404D01*
X144509190Y-104689017D01*
X144409112Y-104922515D01*
X144356294Y-105171004D01*
X144352747Y-105425021D01*
X141595447Y-105425021D01*
X141560405Y-105340004D01*
X141419820Y-105128408D01*
X141240814Y-104948148D01*
X141079030Y-104839023D01*
X141212487Y-104754328D01*
X141396456Y-104579137D01*
X141542894Y-104371548D01*
X141646222Y-104139470D01*
X141702504Y-103891742D01*
X141706556Y-103601579D01*
X141657212Y-103352377D01*
X141560405Y-103117504D01*
X141419820Y-102905908D01*
X141240814Y-102725648D01*
X141030205Y-102583590D01*
X140796014Y-102485145D01*
X140547161Y-102434063D01*
X140293126Y-102432289D01*
X140043585Y-102479892D01*
X139808042Y-102575057D01*
X139595470Y-102714161D01*
X139413964Y-102891904D01*
X139270440Y-103101517D01*
X139170362Y-103335015D01*
X139117544Y-103583504D01*
X139113997Y-103837521D01*
X135853244Y-103837521D01*
X135942259Y-103711335D01*
X136041535Y-103488358D01*
X136095610Y-103250344D01*
X136099503Y-102971561D01*
X136052095Y-102732130D01*
X135959084Y-102506469D01*
X135824013Y-102303170D01*
X135652026Y-102129979D01*
X135449676Y-101993492D01*
X135294469Y-101928249D01*
X151864864Y-101928249D01*
X151908925Y-102168318D01*
X151998776Y-102395257D01*
X152130996Y-102600421D01*
X152300547Y-102775997D01*
X152500972Y-102915296D01*
X152724637Y-103013012D01*
X152963021Y-103065425D01*
X153207047Y-103070536D01*
X153447417Y-103028152D01*
X153674977Y-102939887D01*
X153881060Y-102809104D01*
X154057815Y-102640782D01*
X154198509Y-102441335D01*
X154297785Y-102218358D01*
X154351860Y-101980344D01*
X154355753Y-101701561D01*
X154313317Y-101487238D01*
X167478963Y-101487238D01*
X167537861Y-101808147D01*
X167657968Y-102111503D01*
X167834710Y-102385754D01*
X168061356Y-102620452D01*
X168329271Y-102806657D01*
X168628251Y-102937279D01*
X168946908Y-103007340D01*
X169273105Y-103014173D01*
X169594417Y-102957517D01*
X169898605Y-102839530D01*
X170174082Y-102664707D01*
X170410356Y-102439706D01*
X170598428Y-102173097D01*
X170731133Y-101875036D01*
X170803418Y-101556876D01*
X170808621Y-101184216D01*
X170745249Y-100864161D01*
X170620918Y-100562511D01*
X170440363Y-100290755D01*
X170210464Y-100059244D01*
X169939975Y-99876797D01*
X169639200Y-99750363D01*
X169319595Y-99684758D01*
X168993335Y-99682480D01*
X168672846Y-99743617D01*
X168370335Y-99865839D01*
X168097325Y-100044492D01*
X167864215Y-100272770D01*
X167679884Y-100541978D01*
X167551354Y-100841863D01*
X167483518Y-101161002D01*
X167478963Y-101487238D01*
X154313317Y-101487238D01*
X154308345Y-101462130D01*
X154215334Y-101236469D01*
X154080263Y-101033170D01*
X153908276Y-100859979D01*
X153705926Y-100723492D01*
X153480919Y-100628908D01*
X153241826Y-100579829D01*
X152997753Y-100578125D01*
X152757998Y-100623861D01*
X152531692Y-100715294D01*
X152327455Y-100848943D01*
X152153068Y-101019716D01*
X152015172Y-101221108D01*
X151919019Y-101445450D01*
X151868272Y-101684195D01*
X151864864Y-101928249D01*
X135294469Y-101928249D01*
X135224669Y-101898908D01*
X134985576Y-101849829D01*
X134741503Y-101848125D01*
X134501748Y-101893861D01*
X134275442Y-101985294D01*
X134071205Y-102118943D01*
X133896818Y-102289716D01*
X133758922Y-102491108D01*
X133662769Y-102715450D01*
X133612022Y-102954195D01*
X133608614Y-103198249D01*
X123607800Y-103198249D01*
X123607800Y-99388249D01*
X149324864Y-99388249D01*
X149368925Y-99628318D01*
X149458776Y-99855257D01*
X149590996Y-100060421D01*
X149760547Y-100235997D01*
X149960972Y-100375296D01*
X150184637Y-100473012D01*
X150423021Y-100525425D01*
X150667047Y-100530536D01*
X150907417Y-100488152D01*
X151134977Y-100399887D01*
X151341060Y-100269104D01*
X151517815Y-100100782D01*
X151658509Y-99901335D01*
X151757785Y-99678358D01*
X151811860Y-99440344D01*
X151815753Y-99161561D01*
X151768345Y-98922130D01*
X151675334Y-98696469D01*
X151540263Y-98493170D01*
X151368276Y-98319979D01*
X151165926Y-98183492D01*
X150940919Y-98088908D01*
X150701826Y-98039829D01*
X150457753Y-98038125D01*
X150217998Y-98083861D01*
X149991692Y-98175294D01*
X149787455Y-98308943D01*
X149613068Y-98479716D01*
X149475172Y-98681108D01*
X149379019Y-98905450D01*
X149328272Y-99144195D01*
X149324864Y-99388249D01*
X123607800Y-99388249D01*
X123607800Y-97157207D01*
X132281598Y-97157207D01*
X132322062Y-97377678D01*
X132404579Y-97586091D01*
X132526005Y-97774507D01*
X132681715Y-97935750D01*
X132865779Y-98063677D01*
X133071185Y-98153417D01*
X133290109Y-98201551D01*
X133514214Y-98206245D01*
X133734962Y-98167321D01*
X133943946Y-98086262D01*
X134133206Y-97966154D01*
X134295532Y-97811573D01*
X134424741Y-97628407D01*
X134515913Y-97423632D01*
X134565573Y-97205049D01*
X134569149Y-96949023D01*
X134549195Y-96848249D01*
X151864864Y-96848249D01*
X151908925Y-97088318D01*
X151998776Y-97315257D01*
X152130996Y-97520421D01*
X152300547Y-97695997D01*
X152500972Y-97835296D01*
X152724637Y-97933012D01*
X152963021Y-97985425D01*
X153207047Y-97990536D01*
X153447417Y-97948152D01*
X153674977Y-97859887D01*
X153881060Y-97729104D01*
X154057815Y-97560782D01*
X154198509Y-97361335D01*
X154297785Y-97138358D01*
X154351860Y-96900344D01*
X154355753Y-96621561D01*
X154308345Y-96382130D01*
X154215334Y-96156469D01*
X154080263Y-95953170D01*
X154027484Y-95900021D01*
X158798997Y-95900021D01*
X158844856Y-96149888D01*
X158938375Y-96386090D01*
X159075991Y-96599628D01*
X159252463Y-96782370D01*
X159461069Y-96927355D01*
X159693862Y-97029060D01*
X159941977Y-97083611D01*
X160195963Y-97088932D01*
X160446144Y-97044818D01*
X160682993Y-96952950D01*
X160897487Y-96816828D01*
X161081456Y-96641637D01*
X161165704Y-96522207D01*
X164984098Y-96522207D01*
X165024562Y-96742678D01*
X165107079Y-96951091D01*
X165228505Y-97139507D01*
X165384215Y-97300750D01*
X165568279Y-97428677D01*
X165773685Y-97518417D01*
X165992609Y-97566551D01*
X166216714Y-97571245D01*
X166437462Y-97532321D01*
X166646446Y-97451262D01*
X166835706Y-97331154D01*
X166998032Y-97176573D01*
X167127241Y-96993407D01*
X167218413Y-96788632D01*
X167268073Y-96570049D01*
X167268741Y-96522207D01*
X167524098Y-96522207D01*
X167564562Y-96742678D01*
X167647079Y-96951091D01*
X167768505Y-97139507D01*
X167924215Y-97300750D01*
X168108279Y-97428677D01*
X168313685Y-97518417D01*
X168532609Y-97566551D01*
X168756714Y-97571245D01*
X168977462Y-97532321D01*
X169186446Y-97451262D01*
X169375706Y-97331154D01*
X169538032Y-97176573D01*
X169667241Y-96993407D01*
X169758413Y-96788632D01*
X169808073Y-96570049D01*
X169808741Y-96522207D01*
X170064098Y-96522207D01*
X170104562Y-96742678D01*
X170187079Y-96951091D01*
X170308505Y-97139507D01*
X170464215Y-97300750D01*
X170648279Y-97428677D01*
X170853685Y-97518417D01*
X171072609Y-97566551D01*
X171296714Y-97571245D01*
X171517462Y-97532321D01*
X171726446Y-97451262D01*
X171915706Y-97331154D01*
X172078032Y-97176573D01*
X172207241Y-96993407D01*
X172298413Y-96788632D01*
X172348073Y-96570049D01*
X172351649Y-96314023D01*
X172308110Y-96094138D01*
X172222692Y-95886898D01*
X172098647Y-95700195D01*
X171940701Y-95541142D01*
X171754869Y-95415797D01*
X171548230Y-95328934D01*
X171328654Y-95283862D01*
X171104506Y-95282297D01*
X170884322Y-95324299D01*
X170676491Y-95408269D01*
X170488927Y-95531007D01*
X170328775Y-95687839D01*
X170202135Y-95872791D01*
X170113832Y-96078819D01*
X170067228Y-96298075D01*
X170064098Y-96522207D01*
X169808741Y-96522207D01*
X169811649Y-96314023D01*
X169768110Y-96094138D01*
X169682692Y-95886898D01*
X169558647Y-95700195D01*
X169400701Y-95541142D01*
X169214869Y-95415797D01*
X169008230Y-95328934D01*
X168788654Y-95283862D01*
X168564506Y-95282297D01*
X168344322Y-95324299D01*
X168136491Y-95408269D01*
X167948927Y-95531007D01*
X167788775Y-95687839D01*
X167662135Y-95872791D01*
X167573832Y-96078819D01*
X167527228Y-96298075D01*
X167524098Y-96522207D01*
X167268741Y-96522207D01*
X167271649Y-96314023D01*
X167228110Y-96094138D01*
X167142692Y-95886898D01*
X167018647Y-95700195D01*
X166860701Y-95541142D01*
X166674869Y-95415797D01*
X166468230Y-95328934D01*
X166248654Y-95283862D01*
X166024506Y-95282297D01*
X165804322Y-95324299D01*
X165596491Y-95408269D01*
X165408927Y-95531007D01*
X165248775Y-95687839D01*
X165122135Y-95872791D01*
X165033832Y-96078819D01*
X164987228Y-96298075D01*
X164984098Y-96522207D01*
X161165704Y-96522207D01*
X161227894Y-96434048D01*
X161331222Y-96201970D01*
X161387504Y-95954242D01*
X161391556Y-95664079D01*
X161342212Y-95414877D01*
X161245405Y-95180004D01*
X161104820Y-94968408D01*
X160925814Y-94788148D01*
X160715205Y-94646090D01*
X160481014Y-94547645D01*
X160232161Y-94496563D01*
X159978126Y-94494789D01*
X159728585Y-94542392D01*
X159493042Y-94637557D01*
X159280470Y-94776661D01*
X159098964Y-94954404D01*
X158955440Y-95164017D01*
X158855362Y-95397515D01*
X158802544Y-95646004D01*
X158798997Y-95900021D01*
X154027484Y-95900021D01*
X153908276Y-95779979D01*
X153705926Y-95643492D01*
X153480919Y-95548908D01*
X153241826Y-95499829D01*
X152997753Y-95498125D01*
X152757998Y-95543861D01*
X152531692Y-95635294D01*
X152327455Y-95768943D01*
X152153068Y-95939716D01*
X152015172Y-96141108D01*
X151919019Y-96365450D01*
X151868272Y-96604195D01*
X151864864Y-96848249D01*
X134549195Y-96848249D01*
X134525610Y-96729138D01*
X134440192Y-96521898D01*
X134316147Y-96335195D01*
X134158201Y-96176142D01*
X133972369Y-96050797D01*
X133765730Y-95963934D01*
X133546154Y-95918862D01*
X133322006Y-95917297D01*
X133101822Y-95959299D01*
X132893991Y-96043269D01*
X132706427Y-96166007D01*
X132546275Y-96322839D01*
X132419635Y-96507791D01*
X132331332Y-96713819D01*
X132284728Y-96933075D01*
X132281598Y-97157207D01*
X123607800Y-97157207D01*
X123607800Y-94788771D01*
X126413997Y-94788771D01*
X126459856Y-95038638D01*
X126553375Y-95274840D01*
X126690991Y-95488378D01*
X126867463Y-95671120D01*
X127076069Y-95816105D01*
X127308862Y-95917810D01*
X127556977Y-95972361D01*
X127810963Y-95977682D01*
X128061144Y-95933568D01*
X128297993Y-95841700D01*
X128512487Y-95705578D01*
X128696456Y-95530387D01*
X128842894Y-95322798D01*
X128946222Y-95090720D01*
X129002504Y-94842992D01*
X129005656Y-94617207D01*
X132281598Y-94617207D01*
X132322062Y-94837678D01*
X132404579Y-95046091D01*
X132526005Y-95234507D01*
X132681715Y-95395750D01*
X132865779Y-95523677D01*
X133071185Y-95613417D01*
X133290109Y-95661551D01*
X133514214Y-95666245D01*
X133734962Y-95627321D01*
X133943946Y-95546262D01*
X134133206Y-95426154D01*
X134295532Y-95271573D01*
X134424741Y-95088407D01*
X134515913Y-94883632D01*
X134565573Y-94665049D01*
X134569149Y-94409023D01*
X134525610Y-94189138D01*
X134440192Y-93981898D01*
X134316147Y-93795195D01*
X134158201Y-93636142D01*
X133972369Y-93510797D01*
X133765730Y-93423934D01*
X133546154Y-93378862D01*
X133322006Y-93377297D01*
X133101822Y-93419299D01*
X132893991Y-93503269D01*
X132706427Y-93626007D01*
X132546275Y-93782839D01*
X132419635Y-93967791D01*
X132331332Y-94173819D01*
X132284728Y-94393075D01*
X132281598Y-94617207D01*
X129005656Y-94617207D01*
X129006556Y-94552829D01*
X128957212Y-94303627D01*
X128860405Y-94068754D01*
X128719820Y-93857158D01*
X128540814Y-93676898D01*
X128330205Y-93534840D01*
X128147300Y-93457954D01*
X128233622Y-93442733D01*
X128479758Y-93347263D01*
X128702664Y-93205803D01*
X128893848Y-93023741D01*
X129046028Y-92808012D01*
X129153408Y-92566833D01*
X129211897Y-92309390D01*
X129215139Y-92077207D01*
X132281598Y-92077207D01*
X132322062Y-92297678D01*
X132404579Y-92506091D01*
X132526005Y-92694507D01*
X132681715Y-92855750D01*
X132865779Y-92983677D01*
X133071185Y-93073417D01*
X133290109Y-93121551D01*
X133514214Y-93126245D01*
X133734962Y-93087321D01*
X133943946Y-93006262D01*
X134133206Y-92886154D01*
X134295532Y-92731573D01*
X134300153Y-92725021D01*
X144352747Y-92725021D01*
X144398606Y-92974888D01*
X144492125Y-93211090D01*
X144629741Y-93424628D01*
X144806213Y-93607370D01*
X145014819Y-93752355D01*
X145247612Y-93854060D01*
X145495727Y-93908611D01*
X145749713Y-93913932D01*
X145999894Y-93869818D01*
X146236743Y-93777950D01*
X146451237Y-93641828D01*
X146635206Y-93466637D01*
X146781644Y-93259048D01*
X146884972Y-93026970D01*
X146941254Y-92779242D01*
X146945306Y-92489079D01*
X146895962Y-92239877D01*
X146799155Y-92005004D01*
X146658570Y-91793408D01*
X146479564Y-91613148D01*
X146268955Y-91471090D01*
X146034764Y-91372645D01*
X145785911Y-91321563D01*
X145531876Y-91319789D01*
X145282335Y-91367392D01*
X145046792Y-91462557D01*
X144834220Y-91601661D01*
X144652714Y-91779404D01*
X144509190Y-91989017D01*
X144409112Y-92222515D01*
X144356294Y-92471004D01*
X144352747Y-92725021D01*
X134300153Y-92725021D01*
X134424741Y-92548407D01*
X134515913Y-92343632D01*
X134565573Y-92125049D01*
X134569149Y-91869023D01*
X134535695Y-91700069D01*
X139774986Y-91700069D01*
X139846905Y-91847680D01*
X140017541Y-91942010D01*
X140203300Y-92001239D01*
X140397046Y-92023089D01*
X140591331Y-92006722D01*
X140778689Y-91952766D01*
X140951922Y-91863296D01*
X140975295Y-91847680D01*
X141047214Y-91700069D01*
X140411100Y-91063955D01*
X139774986Y-91700069D01*
X134535695Y-91700069D01*
X134525610Y-91649138D01*
X134440192Y-91441898D01*
X134316147Y-91255195D01*
X134158201Y-91096142D01*
X134037230Y-91014546D01*
X139416611Y-91014546D01*
X139432978Y-91208831D01*
X139486934Y-91396189D01*
X139576404Y-91569422D01*
X139592020Y-91592795D01*
X139739631Y-91664714D01*
X140375745Y-91028600D01*
X140446455Y-91028600D01*
X141082569Y-91664714D01*
X141230180Y-91592795D01*
X141324510Y-91422159D01*
X141383739Y-91236400D01*
X141386840Y-91208899D01*
X147954900Y-91208899D01*
X147954900Y-92753301D01*
X147980538Y-93014779D01*
X148056476Y-93266298D01*
X148179821Y-93498277D01*
X148345876Y-93701880D01*
X148548315Y-93869351D01*
X148779427Y-93994313D01*
X149030409Y-94072005D01*
X149291702Y-94099468D01*
X149553353Y-94075656D01*
X149805395Y-94001476D01*
X150038230Y-93879753D01*
X150242987Y-93715124D01*
X150411868Y-93513860D01*
X150538440Y-93283626D01*
X150617882Y-93033192D01*
X150647169Y-92772097D01*
X150647300Y-92753301D01*
X150647300Y-92006100D01*
X150800500Y-92006100D01*
X150800500Y-92768100D01*
X150825372Y-92970631D01*
X150889278Y-93164418D01*
X150989762Y-93342014D01*
X151122963Y-93496594D01*
X151283761Y-93622217D01*
X151465977Y-93714056D01*
X151653669Y-93766681D01*
X151816100Y-93713728D01*
X151816100Y-92006100D01*
X151866100Y-92006100D01*
X151866100Y-93713728D01*
X152028531Y-93766681D01*
X152216223Y-93714056D01*
X152398439Y-93622217D01*
X152559237Y-93496594D01*
X152692438Y-93342014D01*
X152792922Y-93164418D01*
X152856828Y-92970631D01*
X152881700Y-92768100D01*
X152881700Y-92006100D01*
X151866100Y-92006100D01*
X151816100Y-92006100D01*
X150800500Y-92006100D01*
X150647300Y-92006100D01*
X150647300Y-91208899D01*
X150645849Y-91194100D01*
X150800500Y-91194100D01*
X150800500Y-91956100D01*
X151816100Y-91956100D01*
X151816100Y-90248472D01*
X151866100Y-90248472D01*
X151866100Y-91956100D01*
X152881700Y-91956100D01*
X152881700Y-91455021D01*
X153560247Y-91455021D01*
X153606106Y-91704888D01*
X153699625Y-91941090D01*
X153837241Y-92154628D01*
X154013713Y-92337370D01*
X154222319Y-92482355D01*
X154455112Y-92584060D01*
X154703227Y-92638611D01*
X154957213Y-92643932D01*
X155207394Y-92599818D01*
X155444243Y-92507950D01*
X155658737Y-92371828D01*
X155842706Y-92196637D01*
X155989144Y-91989048D01*
X156092472Y-91756970D01*
X156148754Y-91509242D01*
X156149511Y-91455021D01*
X166260247Y-91455021D01*
X166306106Y-91704888D01*
X166399625Y-91941090D01*
X166537241Y-92154628D01*
X166713713Y-92337370D01*
X166922319Y-92482355D01*
X167155112Y-92584060D01*
X167403227Y-92638611D01*
X167657213Y-92643932D01*
X167907394Y-92599818D01*
X168144243Y-92507950D01*
X168358737Y-92371828D01*
X168542706Y-92196637D01*
X168689144Y-91989048D01*
X168792472Y-91756970D01*
X168848754Y-91509242D01*
X168852806Y-91219079D01*
X168803462Y-90969877D01*
X168706655Y-90735004D01*
X168566070Y-90523408D01*
X168387064Y-90343148D01*
X168176455Y-90201090D01*
X167942264Y-90102645D01*
X167693411Y-90051563D01*
X167439376Y-90049789D01*
X167189835Y-90097392D01*
X166954292Y-90192557D01*
X166741720Y-90331661D01*
X166560214Y-90509404D01*
X166416690Y-90719017D01*
X166316612Y-90952515D01*
X166263794Y-91201004D01*
X166260247Y-91455021D01*
X156149511Y-91455021D01*
X156152806Y-91219079D01*
X156103462Y-90969877D01*
X156006655Y-90735004D01*
X155866070Y-90523408D01*
X155687064Y-90343148D01*
X155476455Y-90201090D01*
X155242264Y-90102645D01*
X154993411Y-90051563D01*
X154739376Y-90049789D01*
X154489835Y-90097392D01*
X154254292Y-90192557D01*
X154041720Y-90331661D01*
X153860214Y-90509404D01*
X153716690Y-90719017D01*
X153616612Y-90952515D01*
X153563794Y-91201004D01*
X153560247Y-91455021D01*
X152881700Y-91455021D01*
X152881700Y-91194100D01*
X152856828Y-90991569D01*
X152792922Y-90797782D01*
X152692438Y-90620186D01*
X152559237Y-90465606D01*
X152398439Y-90339983D01*
X152216223Y-90248144D01*
X152028531Y-90195519D01*
X151866100Y-90248472D01*
X151816100Y-90248472D01*
X151653669Y-90195519D01*
X151465977Y-90248144D01*
X151283761Y-90339983D01*
X151122963Y-90465606D01*
X150989762Y-90620186D01*
X150889278Y-90797782D01*
X150825372Y-90991569D01*
X150800500Y-91194100D01*
X150645849Y-91194100D01*
X150621662Y-90947421D01*
X150545724Y-90695902D01*
X150422379Y-90463923D01*
X150256324Y-90260320D01*
X150053885Y-90092849D01*
X149822773Y-89967887D01*
X149571791Y-89890195D01*
X149310498Y-89862732D01*
X149048847Y-89886544D01*
X148796805Y-89960724D01*
X148563970Y-90082447D01*
X148359213Y-90247076D01*
X148190332Y-90448340D01*
X148063760Y-90678574D01*
X147984318Y-90929008D01*
X147955031Y-91190103D01*
X147954900Y-91208899D01*
X141386840Y-91208899D01*
X141405589Y-91042654D01*
X141389222Y-90848369D01*
X141335266Y-90661011D01*
X141245796Y-90487778D01*
X141230180Y-90464405D01*
X141082569Y-90392486D01*
X140446455Y-91028600D01*
X140375745Y-91028600D01*
X139739631Y-90392486D01*
X139592020Y-90464405D01*
X139497690Y-90635041D01*
X139438461Y-90820800D01*
X139416611Y-91014546D01*
X134037230Y-91014546D01*
X133972369Y-90970797D01*
X133765730Y-90883934D01*
X133546154Y-90838862D01*
X133322006Y-90837297D01*
X133101822Y-90879299D01*
X132893991Y-90963269D01*
X132706427Y-91086007D01*
X132546275Y-91242839D01*
X132419635Y-91427791D01*
X132331332Y-91633819D01*
X132284728Y-91853075D01*
X132281598Y-92077207D01*
X129215139Y-92077207D01*
X129216108Y-92007848D01*
X129164829Y-91748873D01*
X129064226Y-91504789D01*
X128918128Y-91284895D01*
X128732102Y-91097566D01*
X128513234Y-90949937D01*
X128269858Y-90847632D01*
X128011247Y-90794546D01*
X127747250Y-90792703D01*
X127487923Y-90842173D01*
X127243143Y-90941070D01*
X127022234Y-91085629D01*
X126833611Y-91270342D01*
X126684458Y-91488175D01*
X126580456Y-91730830D01*
X126525566Y-91989064D01*
X126521880Y-92253042D01*
X126569538Y-92512709D01*
X126666724Y-92758173D01*
X126809737Y-92980085D01*
X126993129Y-93169994D01*
X127209915Y-93320664D01*
X127426560Y-93415313D01*
X127343585Y-93431142D01*
X127108042Y-93526307D01*
X126895470Y-93665411D01*
X126713964Y-93843154D01*
X126570440Y-94052767D01*
X126470362Y-94286265D01*
X126417544Y-94534754D01*
X126413997Y-94788771D01*
X123607800Y-94788771D01*
X123607800Y-91664115D01*
X123718131Y-91778366D01*
X123973243Y-91955674D01*
X124257937Y-92080054D01*
X124561367Y-92146767D01*
X124871976Y-92153273D01*
X125177934Y-92099325D01*
X125467586Y-91986976D01*
X125729900Y-91820507D01*
X125954884Y-91606257D01*
X126133969Y-91352389D01*
X126260333Y-91068571D01*
X126329163Y-90765614D01*
X126334118Y-90410761D01*
X126323499Y-90357131D01*
X139774986Y-90357131D01*
X140411100Y-90993245D01*
X141047214Y-90357131D01*
X140975295Y-90209520D01*
X140804659Y-90115190D01*
X140618900Y-90055961D01*
X140425154Y-90034111D01*
X140230869Y-90050478D01*
X140043511Y-90104434D01*
X139870278Y-90193904D01*
X139846905Y-90209520D01*
X139774986Y-90357131D01*
X126323499Y-90357131D01*
X126273773Y-90106000D01*
X126155383Y-89818765D01*
X125983457Y-89559995D01*
X125899351Y-89475300D01*
X171099410Y-89475300D01*
X171030411Y-89542869D01*
X171030411Y-89542869D01*
G37*
X171030411Y-89542869D02*
X170854888Y-89799213D01*
X170732499Y-90084768D01*
X170667906Y-90388657D01*
X170663568Y-90699304D01*
X170719651Y-91004877D01*
X170834019Y-91293738D01*
X171002316Y-91554883D01*
X171218131Y-91778366D01*
X171473243Y-91955674D01*
X171757937Y-92080054D01*
X172061367Y-92146767D01*
X172371976Y-92153273D01*
X172677934Y-92099325D01*
X172967586Y-91986976D01*
X173229900Y-91820507D01*
X173394400Y-91663855D01*
X173394400Y-118470314D01*
X173264543Y-118339547D01*
X173006980Y-118165818D01*
X172720577Y-118045426D01*
X172416245Y-117982955D01*
X172105575Y-117980786D01*
X171800401Y-118039002D01*
X171512345Y-118155384D01*
X171252381Y-118325499D01*
X171030411Y-118542869D01*
X170854888Y-118799213D01*
X170732499Y-119084768D01*
X170667906Y-119388657D01*
X170663568Y-119699304D01*
X170719651Y-120004877D01*
X170834019Y-120293738D01*
X170987504Y-120531900D01*
X126007337Y-120531900D01*
X126133969Y-120352389D01*
X126260333Y-120068571D01*
X126329163Y-119765614D01*
X126334118Y-119410761D01*
X126273773Y-119106000D01*
X126155383Y-118818765D01*
X125983457Y-118559995D01*
X125964552Y-118540957D01*
X126229098Y-118540957D01*
X126269562Y-118761428D01*
X126352079Y-118969841D01*
X126473505Y-119158257D01*
X126629215Y-119319500D01*
X126813279Y-119447427D01*
X127018685Y-119537167D01*
X127237609Y-119585301D01*
X127461714Y-119589995D01*
X127682462Y-119551071D01*
X127891446Y-119470012D01*
X128080706Y-119349904D01*
X128243032Y-119195323D01*
X128372241Y-119012157D01*
X128463413Y-118807382D01*
X128513073Y-118588799D01*
X128513741Y-118540957D01*
X128769098Y-118540957D01*
X128809562Y-118761428D01*
X128892079Y-118969841D01*
X129013505Y-119158257D01*
X129169215Y-119319500D01*
X129353279Y-119447427D01*
X129558685Y-119537167D01*
X129777609Y-119585301D01*
X130001714Y-119589995D01*
X130222462Y-119551071D01*
X130431446Y-119470012D01*
X130620706Y-119349904D01*
X130783032Y-119195323D01*
X130912241Y-119012157D01*
X131003413Y-118807382D01*
X131053073Y-118588799D01*
X131053741Y-118540957D01*
X131309098Y-118540957D01*
X131349562Y-118761428D01*
X131432079Y-118969841D01*
X131553505Y-119158257D01*
X131709215Y-119319500D01*
X131893279Y-119447427D01*
X132098685Y-119537167D01*
X132317609Y-119585301D01*
X132541714Y-119589995D01*
X132762462Y-119551071D01*
X132971446Y-119470012D01*
X133160706Y-119349904D01*
X133323032Y-119195323D01*
X133452241Y-119012157D01*
X133543413Y-118807382D01*
X133554172Y-118760021D01*
X139113997Y-118760021D01*
X139159856Y-119009888D01*
X139253375Y-119246090D01*
X139390991Y-119459628D01*
X139567463Y-119642370D01*
X139776069Y-119787355D01*
X140008862Y-119889060D01*
X140256977Y-119943611D01*
X140510963Y-119948932D01*
X140761144Y-119904818D01*
X140997993Y-119812950D01*
X141212487Y-119676828D01*
X141396456Y-119501637D01*
X141542894Y-119294048D01*
X141646222Y-119061970D01*
X141702504Y-118814242D01*
X141703201Y-118764292D01*
X161605630Y-118764292D01*
X161653288Y-119023959D01*
X161750474Y-119269423D01*
X161893487Y-119491335D01*
X162076879Y-119681244D01*
X162293665Y-119831914D01*
X162535588Y-119937607D01*
X162793433Y-119994298D01*
X163057379Y-119999827D01*
X163317372Y-119953983D01*
X163563508Y-119858513D01*
X163786414Y-119717053D01*
X163977598Y-119534991D01*
X164129778Y-119319262D01*
X164237158Y-119078083D01*
X164295647Y-118820640D01*
X164299858Y-118519098D01*
X164248579Y-118260123D01*
X164147976Y-118016039D01*
X164001878Y-117796145D01*
X163815852Y-117608816D01*
X163596984Y-117461187D01*
X163353608Y-117358882D01*
X163094997Y-117305796D01*
X162831000Y-117303953D01*
X162571673Y-117353423D01*
X162326893Y-117452320D01*
X162105984Y-117596879D01*
X161917361Y-117781592D01*
X161768208Y-117999425D01*
X161664206Y-118242080D01*
X161609316Y-118500314D01*
X161605630Y-118764292D01*
X141703201Y-118764292D01*
X141706556Y-118524079D01*
X141657212Y-118274877D01*
X141560405Y-118040004D01*
X141419820Y-117828408D01*
X141240814Y-117648148D01*
X141030205Y-117506090D01*
X140796014Y-117407645D01*
X140547161Y-117356563D01*
X140293126Y-117354789D01*
X140043585Y-117402392D01*
X139808042Y-117497557D01*
X139595470Y-117636661D01*
X139413964Y-117814404D01*
X139270440Y-118024017D01*
X139170362Y-118257515D01*
X139117544Y-118506004D01*
X139113997Y-118760021D01*
X133554172Y-118760021D01*
X133593073Y-118588799D01*
X133596649Y-118332773D01*
X133553110Y-118112888D01*
X133467692Y-117905648D01*
X133343647Y-117718945D01*
X133185701Y-117559892D01*
X132999869Y-117434547D01*
X132793230Y-117347684D01*
X132573654Y-117302612D01*
X132349506Y-117301047D01*
X132129322Y-117343049D01*
X131921491Y-117427019D01*
X131733927Y-117549757D01*
X131573775Y-117706589D01*
X131447135Y-117891541D01*
X131358832Y-118097569D01*
X131312228Y-118316825D01*
X131309098Y-118540957D01*
X131053741Y-118540957D01*
X131056649Y-118332773D01*
X131013110Y-118112888D01*
X130927692Y-117905648D01*
X130803647Y-117718945D01*
X130645701Y-117559892D01*
X130459869Y-117434547D01*
X130253230Y-117347684D01*
X130033654Y-117302612D01*
X129809506Y-117301047D01*
X129589322Y-117343049D01*
X129381491Y-117427019D01*
X129193927Y-117549757D01*
X129033775Y-117706589D01*
X128907135Y-117891541D01*
X128818832Y-118097569D01*
X128772228Y-118316825D01*
X128769098Y-118540957D01*
X128513741Y-118540957D01*
X128516649Y-118332773D01*
X128473110Y-118112888D01*
X128387692Y-117905648D01*
X128263647Y-117718945D01*
X128105701Y-117559892D01*
X127919869Y-117434547D01*
X127713230Y-117347684D01*
X127493654Y-117302612D01*
X127269506Y-117301047D01*
X127049322Y-117343049D01*
X126841491Y-117427019D01*
X126653927Y-117549757D01*
X126493775Y-117706589D01*
X126367135Y-117891541D01*
X126278832Y-118097569D01*
X126232228Y-118316825D01*
X126229098Y-118540957D01*
X125964552Y-118540957D01*
X125764543Y-118339547D01*
X125506980Y-118165818D01*
X125220577Y-118045426D01*
X124916245Y-117982955D01*
X124605575Y-117980786D01*
X124300401Y-118039002D01*
X124012345Y-118155384D01*
X123752381Y-118325499D01*
X123607800Y-118467084D01*
X123607800Y-116727238D01*
X167478963Y-116727238D01*
X167537861Y-117048147D01*
X167657968Y-117351503D01*
X167834710Y-117625754D01*
X168061356Y-117860452D01*
X168329271Y-118046657D01*
X168628251Y-118177279D01*
X168946908Y-118247340D01*
X169273105Y-118254173D01*
X169594417Y-118197517D01*
X169898605Y-118079530D01*
X170174082Y-117904707D01*
X170410356Y-117679706D01*
X170598428Y-117413097D01*
X170731133Y-117115036D01*
X170803418Y-116796876D01*
X170808621Y-116424216D01*
X170745249Y-116104161D01*
X170620918Y-115802511D01*
X170440363Y-115530755D01*
X170210464Y-115299244D01*
X169939975Y-115116797D01*
X169639200Y-114990363D01*
X169319595Y-114924758D01*
X168993335Y-114922480D01*
X168672846Y-114983617D01*
X168370335Y-115105839D01*
X168097325Y-115284492D01*
X167864215Y-115512770D01*
X167679884Y-115781978D01*
X167551354Y-116081863D01*
X167483518Y-116401002D01*
X167478963Y-116727238D01*
X123607800Y-116727238D01*
X123607800Y-114310749D01*
X146308614Y-114310749D01*
X146352675Y-114550818D01*
X146442526Y-114777757D01*
X146574746Y-114982921D01*
X146744297Y-115158497D01*
X146944722Y-115297796D01*
X147168387Y-115395512D01*
X147406771Y-115447925D01*
X147650797Y-115453036D01*
X147891167Y-115410652D01*
X148118727Y-115322387D01*
X148324810Y-115191604D01*
X148501565Y-115023282D01*
X148642259Y-114823835D01*
X148741535Y-114600858D01*
X148795610Y-114362844D01*
X148799503Y-114084061D01*
X148752095Y-113844630D01*
X148659084Y-113618969D01*
X148524013Y-113415670D01*
X148352026Y-113242479D01*
X148149676Y-113105992D01*
X147924669Y-113011408D01*
X147685576Y-112962329D01*
X147441503Y-112960625D01*
X147201748Y-113006361D01*
X146975442Y-113097794D01*
X146771205Y-113231443D01*
X146596818Y-113402216D01*
X146458922Y-113603608D01*
X146362769Y-113827950D01*
X146312022Y-114066695D01*
X146308614Y-114310749D01*
X123607800Y-114310749D01*
X123607800Y-111929499D01*
X123924864Y-111929499D01*
X123968925Y-112169568D01*
X124058776Y-112396507D01*
X124190996Y-112601671D01*
X124360547Y-112777247D01*
X124560972Y-112916546D01*
X124784637Y-113014262D01*
X125023021Y-113066675D01*
X125267047Y-113071786D01*
X125507417Y-113029402D01*
X125734977Y-112941137D01*
X125941060Y-112810354D01*
X126117815Y-112642032D01*
X126258509Y-112442585D01*
X126357785Y-112219608D01*
X126411860Y-111981594D01*
X126412587Y-111929499D01*
X129004864Y-111929499D01*
X129048925Y-112169568D01*
X129138776Y-112396507D01*
X129270996Y-112601671D01*
X129440547Y-112777247D01*
X129640972Y-112916546D01*
X129864637Y-113014262D01*
X130103021Y-113066675D01*
X130347047Y-113071786D01*
X130587417Y-113029402D01*
X130814977Y-112941137D01*
X131021060Y-112810354D01*
X131197815Y-112642032D01*
X131338509Y-112442585D01*
X131437785Y-112219608D01*
X131468113Y-112086114D01*
X131506798Y-112086114D01*
X131549959Y-112321283D01*
X131637977Y-112543590D01*
X131767498Y-112744568D01*
X131933589Y-112916560D01*
X132129924Y-113053016D01*
X132349024Y-113148738D01*
X132582543Y-113200081D01*
X132821588Y-113205088D01*
X133057053Y-113163569D01*
X133279970Y-113077106D01*
X133481846Y-112948991D01*
X133654994Y-112784105D01*
X133743825Y-112658179D01*
X133799498Y-112744568D01*
X133965589Y-112916560D01*
X134161924Y-113053016D01*
X134381024Y-113148738D01*
X134614543Y-113200081D01*
X134853588Y-113205088D01*
X135089053Y-113163569D01*
X135311970Y-113077106D01*
X135513846Y-112948991D01*
X135686994Y-112784105D01*
X135824817Y-112588728D01*
X135922067Y-112370301D01*
X135975039Y-112137146D01*
X135978852Y-111864051D01*
X135960378Y-111770749D01*
X143768614Y-111770749D01*
X143812675Y-112010818D01*
X143902526Y-112237757D01*
X144034746Y-112442921D01*
X144204297Y-112618497D01*
X144404722Y-112757796D01*
X144628387Y-112855512D01*
X144866771Y-112907925D01*
X145110797Y-112913036D01*
X145351167Y-112870652D01*
X145578727Y-112782387D01*
X145784810Y-112651604D01*
X145961565Y-112483282D01*
X146102259Y-112283835D01*
X146201535Y-112060858D01*
X146255610Y-111822844D01*
X146256585Y-111752988D01*
X155599568Y-111752988D01*
X155653200Y-111884993D01*
X155797927Y-111964138D01*
X155955312Y-112013528D01*
X156119309Y-112031264D01*
X156283616Y-112016665D01*
X156441916Y-111970292D01*
X156588129Y-111893928D01*
X156601500Y-111884993D01*
X156655132Y-111752988D01*
X156127350Y-111225205D01*
X155599568Y-111752988D01*
X146256585Y-111752988D01*
X146259503Y-111544061D01*
X146212095Y-111304630D01*
X146161472Y-111181809D01*
X155285936Y-111181809D01*
X155300535Y-111346116D01*
X155346908Y-111504416D01*
X155423272Y-111650629D01*
X155432207Y-111664000D01*
X155564212Y-111717632D01*
X156091995Y-111189850D01*
X156162705Y-111189850D01*
X156690488Y-111717632D01*
X156822493Y-111664000D01*
X156901638Y-111519273D01*
X156951028Y-111361888D01*
X156959239Y-111285957D01*
X157522848Y-111285957D01*
X157563312Y-111506428D01*
X157645829Y-111714841D01*
X157767255Y-111903257D01*
X157922965Y-112064500D01*
X158107029Y-112192427D01*
X158312435Y-112282167D01*
X158531359Y-112330301D01*
X158755464Y-112334995D01*
X158976212Y-112296071D01*
X159185196Y-112215012D01*
X159374456Y-112094904D01*
X159536782Y-111940323D01*
X159665991Y-111757157D01*
X159757163Y-111552382D01*
X159806823Y-111333799D01*
X159807491Y-111285957D01*
X160062848Y-111285957D01*
X160103312Y-111506428D01*
X160185829Y-111714841D01*
X160307255Y-111903257D01*
X160462965Y-112064500D01*
X160647029Y-112192427D01*
X160852435Y-112282167D01*
X161071359Y-112330301D01*
X161295464Y-112334995D01*
X161516212Y-112296071D01*
X161725196Y-112215012D01*
X161914456Y-112094904D01*
X162076782Y-111940323D01*
X162205991Y-111757157D01*
X162297163Y-111552382D01*
X162346823Y-111333799D01*
X162350399Y-111077773D01*
X162306860Y-110857888D01*
X162221442Y-110650648D01*
X162097397Y-110463945D01*
X161939451Y-110304892D01*
X161753619Y-110179547D01*
X161546980Y-110092684D01*
X161327404Y-110047612D01*
X161103256Y-110046047D01*
X160883072Y-110088049D01*
X160675241Y-110172019D01*
X160487677Y-110294757D01*
X160327525Y-110451589D01*
X160200885Y-110636541D01*
X160112582Y-110842569D01*
X160065978Y-111061825D01*
X160062848Y-111285957D01*
X159807491Y-111285957D01*
X159810399Y-111077773D01*
X159766860Y-110857888D01*
X159681442Y-110650648D01*
X159557397Y-110463945D01*
X159399451Y-110304892D01*
X159213619Y-110179547D01*
X159006980Y-110092684D01*
X158787404Y-110047612D01*
X158563256Y-110046047D01*
X158343072Y-110088049D01*
X158135241Y-110172019D01*
X157947677Y-110294757D01*
X157787525Y-110451589D01*
X157660885Y-110636541D01*
X157572582Y-110842569D01*
X157525978Y-111061825D01*
X157522848Y-111285957D01*
X156959239Y-111285957D01*
X156968764Y-111197891D01*
X156954165Y-111033584D01*
X156907792Y-110875284D01*
X156831428Y-110729071D01*
X156822493Y-110715700D01*
X156690488Y-110662068D01*
X156162705Y-111189850D01*
X156091995Y-111189850D01*
X155564212Y-110662068D01*
X155432207Y-110715700D01*
X155353062Y-110860427D01*
X155303672Y-111017812D01*
X155285936Y-111181809D01*
X146161472Y-111181809D01*
X146119084Y-111078969D01*
X145984013Y-110875670D01*
X145812026Y-110702479D01*
X145699697Y-110626712D01*
X155599568Y-110626712D01*
X156127350Y-111154495D01*
X156655132Y-110626712D01*
X156601500Y-110494707D01*
X156456773Y-110415562D01*
X156299388Y-110366172D01*
X156135391Y-110348436D01*
X155971084Y-110363035D01*
X155812784Y-110409408D01*
X155666571Y-110485772D01*
X155653200Y-110494707D01*
X155599568Y-110626712D01*
X145699697Y-110626712D01*
X145609676Y-110565992D01*
X145384669Y-110471408D01*
X145145576Y-110422329D01*
X144901503Y-110420625D01*
X144661748Y-110466361D01*
X144435442Y-110557794D01*
X144231205Y-110691443D01*
X144056818Y-110862216D01*
X143918922Y-111063608D01*
X143822769Y-111287950D01*
X143772022Y-111526695D01*
X143768614Y-111770749D01*
X135960378Y-111770749D01*
X135932411Y-111629507D01*
X135841298Y-111408451D01*
X135708984Y-111209302D01*
X135540507Y-111039645D01*
X135342287Y-110905943D01*
X135121872Y-110813289D01*
X134887658Y-110765212D01*
X134648566Y-110763543D01*
X134413704Y-110808345D01*
X134192016Y-110897913D01*
X133991948Y-111028834D01*
X133821120Y-111196122D01*
X133743522Y-111309450D01*
X133676984Y-111209302D01*
X133508507Y-111039645D01*
X133310287Y-110905943D01*
X133089872Y-110813289D01*
X132855658Y-110765212D01*
X132616566Y-110763543D01*
X132381704Y-110808345D01*
X132160016Y-110897913D01*
X131959948Y-111028834D01*
X131789120Y-111196122D01*
X131654038Y-111393404D01*
X131559847Y-111613167D01*
X131510136Y-111847040D01*
X131506798Y-112086114D01*
X131468113Y-112086114D01*
X131491860Y-111981594D01*
X131495753Y-111702811D01*
X131448345Y-111463380D01*
X131355334Y-111237719D01*
X131220263Y-111034420D01*
X131048276Y-110861229D01*
X130845926Y-110724742D01*
X130620919Y-110630158D01*
X130381826Y-110581079D01*
X130137753Y-110579375D01*
X129897998Y-110625111D01*
X129671692Y-110716544D01*
X129467455Y-110850193D01*
X129293068Y-111020966D01*
X129155172Y-111222358D01*
X129059019Y-111446700D01*
X129008272Y-111685445D01*
X129004864Y-111929499D01*
X126412587Y-111929499D01*
X126415753Y-111702811D01*
X126368345Y-111463380D01*
X126275334Y-111237719D01*
X126140263Y-111034420D01*
X125968276Y-110861229D01*
X125765926Y-110724742D01*
X125540919Y-110630158D01*
X125301826Y-110581079D01*
X125057753Y-110579375D01*
X124817998Y-110625111D01*
X124591692Y-110716544D01*
X124387455Y-110850193D01*
X124213068Y-111020966D01*
X124075172Y-111222358D01*
X123979019Y-111446700D01*
X123928272Y-111685445D01*
X123924864Y-111929499D01*
X123607800Y-111929499D01*
X123607800Y-109761460D01*
X146954845Y-109761460D01*
X147020669Y-109903869D01*
X147182669Y-109993139D01*
X147358971Y-110049087D01*
X147542800Y-110069566D01*
X147727093Y-110053789D01*
X147904766Y-110002361D01*
X148068992Y-109917258D01*
X148089031Y-109903869D01*
X148154855Y-109761460D01*
X147554850Y-109161455D01*
X146954845Y-109761460D01*
X123607800Y-109761460D01*
X123607800Y-108808960D01*
X134254845Y-108808960D01*
X134320669Y-108951369D01*
X134482669Y-109040639D01*
X134658971Y-109096587D01*
X134842800Y-109117066D01*
X134878030Y-109114050D01*
X146611384Y-109114050D01*
X146627161Y-109298343D01*
X146678589Y-109476016D01*
X146763692Y-109640242D01*
X146777081Y-109660281D01*
X146919490Y-109726105D01*
X147519495Y-109126100D01*
X147590205Y-109126100D01*
X148190210Y-109726105D01*
X148332619Y-109660281D01*
X148421889Y-109498281D01*
X148477837Y-109321979D01*
X148498316Y-109138150D01*
X148482539Y-108953857D01*
X148431111Y-108776184D01*
X148346008Y-108611958D01*
X148338033Y-108600021D01*
X158798997Y-108600021D01*
X158844856Y-108849888D01*
X158938375Y-109086090D01*
X159075991Y-109299628D01*
X159252463Y-109482370D01*
X159461069Y-109627355D01*
X159693862Y-109729060D01*
X159941977Y-109783611D01*
X160195963Y-109788932D01*
X160446144Y-109744818D01*
X160682993Y-109652950D01*
X160897487Y-109516828D01*
X161081456Y-109341637D01*
X161227894Y-109134048D01*
X161331222Y-108901970D01*
X161387504Y-108654242D01*
X161391556Y-108364079D01*
X161342212Y-108114877D01*
X161245405Y-107880004D01*
X161104820Y-107668408D01*
X160925814Y-107488148D01*
X160715205Y-107346090D01*
X160481014Y-107247645D01*
X160232161Y-107196563D01*
X159978126Y-107194789D01*
X159728585Y-107242392D01*
X159493042Y-107337557D01*
X159280470Y-107476661D01*
X159098964Y-107654404D01*
X158955440Y-107864017D01*
X158855362Y-108097515D01*
X158802544Y-108346004D01*
X158798997Y-108600021D01*
X148338033Y-108600021D01*
X148332619Y-108591919D01*
X148190210Y-108526095D01*
X147590205Y-109126100D01*
X147519495Y-109126100D01*
X146919490Y-108526095D01*
X146777081Y-108591919D01*
X146687811Y-108753919D01*
X146631863Y-108930221D01*
X146611384Y-109114050D01*
X134878030Y-109114050D01*
X135027093Y-109101289D01*
X135204766Y-109049861D01*
X135368992Y-108964758D01*
X135389031Y-108951369D01*
X135454855Y-108808960D01*
X134854850Y-108208955D01*
X134254845Y-108808960D01*
X123607800Y-108808960D01*
X123607800Y-108051319D01*
X127074986Y-108051319D01*
X127146905Y-108198930D01*
X127317541Y-108293260D01*
X127503300Y-108352489D01*
X127697046Y-108374339D01*
X127891331Y-108357972D01*
X128078689Y-108304016D01*
X128251922Y-108214546D01*
X128275295Y-108198930D01*
X128293507Y-108161550D01*
X133911384Y-108161550D01*
X133927161Y-108345843D01*
X133978589Y-108523516D01*
X134063692Y-108687742D01*
X134077081Y-108707781D01*
X134219490Y-108773605D01*
X134819495Y-108173600D01*
X134890205Y-108173600D01*
X135490210Y-108773605D01*
X135632619Y-108707781D01*
X135721889Y-108545781D01*
X135739355Y-108490740D01*
X146954845Y-108490740D01*
X147554850Y-109090745D01*
X148154855Y-108490740D01*
X148089031Y-108348331D01*
X147927031Y-108259061D01*
X147750729Y-108203113D01*
X147566900Y-108182634D01*
X147382607Y-108198411D01*
X147204934Y-108249839D01*
X147040708Y-108334942D01*
X147020669Y-108348331D01*
X146954845Y-108490740D01*
X135739355Y-108490740D01*
X135777837Y-108369479D01*
X135798316Y-108185650D01*
X135782539Y-108001357D01*
X135731111Y-107823684D01*
X135646008Y-107659458D01*
X135632619Y-107639419D01*
X135490210Y-107573595D01*
X134890205Y-108173600D01*
X134819495Y-108173600D01*
X134219490Y-107573595D01*
X134077081Y-107639419D01*
X133987811Y-107801419D01*
X133931863Y-107977721D01*
X133911384Y-108161550D01*
X128293507Y-108161550D01*
X128347214Y-108051319D01*
X127711100Y-107415205D01*
X127074986Y-108051319D01*
X123607800Y-108051319D01*
X123607800Y-107365796D01*
X126716611Y-107365796D01*
X126732978Y-107560081D01*
X126786934Y-107747439D01*
X126876404Y-107920672D01*
X126892020Y-107944045D01*
X127039631Y-108015964D01*
X127675745Y-107379850D01*
X127746455Y-107379850D01*
X128382569Y-108015964D01*
X128530180Y-107944045D01*
X128624510Y-107773409D01*
X128683739Y-107587650D01*
X128689311Y-107538240D01*
X134254845Y-107538240D01*
X134854850Y-108138245D01*
X135454855Y-107538240D01*
X135389031Y-107395831D01*
X135227031Y-107306561D01*
X135050729Y-107250613D01*
X134866900Y-107230134D01*
X134682607Y-107245911D01*
X134504934Y-107297339D01*
X134340708Y-107382442D01*
X134320669Y-107395831D01*
X134254845Y-107538240D01*
X128689311Y-107538240D01*
X128705589Y-107393904D01*
X128689222Y-107199619D01*
X128635266Y-107012261D01*
X128545796Y-106839028D01*
X128530180Y-106815655D01*
X128382569Y-106743736D01*
X127746455Y-107379850D01*
X127675745Y-107379850D01*
X127039631Y-106743736D01*
X126892020Y-106815655D01*
X126797690Y-106986291D01*
X126738461Y-107172050D01*
X126716611Y-107365796D01*
X123607800Y-107365796D01*
X123607800Y-106708381D01*
X127074986Y-106708381D01*
X127711100Y-107344495D01*
X128347214Y-106708381D01*
X128275295Y-106560770D01*
X128104659Y-106466440D01*
X127918900Y-106407211D01*
X127725154Y-106385361D01*
X127530869Y-106401728D01*
X127343511Y-106455684D01*
X127170278Y-106545154D01*
X127146905Y-106560770D01*
X127074986Y-106708381D01*
X123607800Y-106708381D01*
X123607800Y-103198249D01*
X133608614Y-103198249D01*
X133652675Y-103438318D01*
X133742526Y-103665257D01*
X133874746Y-103870421D01*
X134044297Y-104045997D01*
X134244722Y-104185296D01*
X134468387Y-104283012D01*
X134706771Y-104335425D01*
X134950797Y-104340536D01*
X135191167Y-104298152D01*
X135418727Y-104209887D01*
X135624810Y-104079104D01*
X135801565Y-103910782D01*
X135853244Y-103837521D01*
X139113997Y-103837521D01*
X139159856Y-104087388D01*
X139253375Y-104323590D01*
X139390991Y-104537128D01*
X139567463Y-104719870D01*
X139741702Y-104840969D01*
X139595470Y-104936661D01*
X139413964Y-105114404D01*
X139270440Y-105324017D01*
X139170362Y-105557515D01*
X139117544Y-105806004D01*
X139113997Y-106060021D01*
X139159856Y-106309888D01*
X139253375Y-106546090D01*
X139390991Y-106759628D01*
X139567463Y-106942370D01*
X139776069Y-107087355D01*
X140008862Y-107189060D01*
X140256977Y-107243611D01*
X140510963Y-107248932D01*
X140761144Y-107204818D01*
X140997993Y-107112950D01*
X141212487Y-106976828D01*
X141396456Y-106801637D01*
X141542894Y-106594048D01*
X141646222Y-106361970D01*
X141702504Y-106114242D01*
X141706556Y-105824079D01*
X141657212Y-105574877D01*
X141595447Y-105425021D01*
X144352747Y-105425021D01*
X144398606Y-105674888D01*
X144492125Y-105911090D01*
X144629741Y-106124628D01*
X144806213Y-106307370D01*
X145014819Y-106452355D01*
X145247612Y-106554060D01*
X145495727Y-106608611D01*
X145749713Y-106613932D01*
X145999894Y-106569818D01*
X146236743Y-106477950D01*
X146451237Y-106341828D01*
X146635206Y-106166637D01*
X146781644Y-105959048D01*
X146884972Y-105726970D01*
X146941254Y-105479242D01*
X146945306Y-105189079D01*
X146895962Y-104939877D01*
X146799155Y-104705004D01*
X146658570Y-104493408D01*
X146479564Y-104313148D01*
X146268955Y-104171090D01*
X146034764Y-104072645D01*
X145785911Y-104021563D01*
X145531876Y-104019789D01*
X145282335Y-104067392D01*
X145046792Y-104162557D01*
X144834220Y-104301661D01*
X144652714Y-104479404D01*
X144509190Y-104689017D01*
X144409112Y-104922515D01*
X144356294Y-105171004D01*
X144352747Y-105425021D01*
X141595447Y-105425021D01*
X141560405Y-105340004D01*
X141419820Y-105128408D01*
X141240814Y-104948148D01*
X141079030Y-104839023D01*
X141212487Y-104754328D01*
X141396456Y-104579137D01*
X141542894Y-104371548D01*
X141646222Y-104139470D01*
X141702504Y-103891742D01*
X141706556Y-103601579D01*
X141657212Y-103352377D01*
X141560405Y-103117504D01*
X141419820Y-102905908D01*
X141240814Y-102725648D01*
X141030205Y-102583590D01*
X140796014Y-102485145D01*
X140547161Y-102434063D01*
X140293126Y-102432289D01*
X140043585Y-102479892D01*
X139808042Y-102575057D01*
X139595470Y-102714161D01*
X139413964Y-102891904D01*
X139270440Y-103101517D01*
X139170362Y-103335015D01*
X139117544Y-103583504D01*
X139113997Y-103837521D01*
X135853244Y-103837521D01*
X135942259Y-103711335D01*
X136041535Y-103488358D01*
X136095610Y-103250344D01*
X136099503Y-102971561D01*
X136052095Y-102732130D01*
X135959084Y-102506469D01*
X135824013Y-102303170D01*
X135652026Y-102129979D01*
X135449676Y-101993492D01*
X135294469Y-101928249D01*
X151864864Y-101928249D01*
X151908925Y-102168318D01*
X151998776Y-102395257D01*
X152130996Y-102600421D01*
X152300547Y-102775997D01*
X152500972Y-102915296D01*
X152724637Y-103013012D01*
X152963021Y-103065425D01*
X153207047Y-103070536D01*
X153447417Y-103028152D01*
X153674977Y-102939887D01*
X153881060Y-102809104D01*
X154057815Y-102640782D01*
X154198509Y-102441335D01*
X154297785Y-102218358D01*
X154351860Y-101980344D01*
X154355753Y-101701561D01*
X154313317Y-101487238D01*
X167478963Y-101487238D01*
X167537861Y-101808147D01*
X167657968Y-102111503D01*
X167834710Y-102385754D01*
X168061356Y-102620452D01*
X168329271Y-102806657D01*
X168628251Y-102937279D01*
X168946908Y-103007340D01*
X169273105Y-103014173D01*
X169594417Y-102957517D01*
X169898605Y-102839530D01*
X170174082Y-102664707D01*
X170410356Y-102439706D01*
X170598428Y-102173097D01*
X170731133Y-101875036D01*
X170803418Y-101556876D01*
X170808621Y-101184216D01*
X170745249Y-100864161D01*
X170620918Y-100562511D01*
X170440363Y-100290755D01*
X170210464Y-100059244D01*
X169939975Y-99876797D01*
X169639200Y-99750363D01*
X169319595Y-99684758D01*
X168993335Y-99682480D01*
X168672846Y-99743617D01*
X168370335Y-99865839D01*
X168097325Y-100044492D01*
X167864215Y-100272770D01*
X167679884Y-100541978D01*
X167551354Y-100841863D01*
X167483518Y-101161002D01*
X167478963Y-101487238D01*
X154313317Y-101487238D01*
X154308345Y-101462130D01*
X154215334Y-101236469D01*
X154080263Y-101033170D01*
X153908276Y-100859979D01*
X153705926Y-100723492D01*
X153480919Y-100628908D01*
X153241826Y-100579829D01*
X152997753Y-100578125D01*
X152757998Y-100623861D01*
X152531692Y-100715294D01*
X152327455Y-100848943D01*
X152153068Y-101019716D01*
X152015172Y-101221108D01*
X151919019Y-101445450D01*
X151868272Y-101684195D01*
X151864864Y-101928249D01*
X135294469Y-101928249D01*
X135224669Y-101898908D01*
X134985576Y-101849829D01*
X134741503Y-101848125D01*
X134501748Y-101893861D01*
X134275442Y-101985294D01*
X134071205Y-102118943D01*
X133896818Y-102289716D01*
X133758922Y-102491108D01*
X133662769Y-102715450D01*
X133612022Y-102954195D01*
X133608614Y-103198249D01*
X123607800Y-103198249D01*
X123607800Y-99388249D01*
X149324864Y-99388249D01*
X149368925Y-99628318D01*
X149458776Y-99855257D01*
X149590996Y-100060421D01*
X149760547Y-100235997D01*
X149960972Y-100375296D01*
X150184637Y-100473012D01*
X150423021Y-100525425D01*
X150667047Y-100530536D01*
X150907417Y-100488152D01*
X151134977Y-100399887D01*
X151341060Y-100269104D01*
X151517815Y-100100782D01*
X151658509Y-99901335D01*
X151757785Y-99678358D01*
X151811860Y-99440344D01*
X151815753Y-99161561D01*
X151768345Y-98922130D01*
X151675334Y-98696469D01*
X151540263Y-98493170D01*
X151368276Y-98319979D01*
X151165926Y-98183492D01*
X150940919Y-98088908D01*
X150701826Y-98039829D01*
X150457753Y-98038125D01*
X150217998Y-98083861D01*
X149991692Y-98175294D01*
X149787455Y-98308943D01*
X149613068Y-98479716D01*
X149475172Y-98681108D01*
X149379019Y-98905450D01*
X149328272Y-99144195D01*
X149324864Y-99388249D01*
X123607800Y-99388249D01*
X123607800Y-97157207D01*
X132281598Y-97157207D01*
X132322062Y-97377678D01*
X132404579Y-97586091D01*
X132526005Y-97774507D01*
X132681715Y-97935750D01*
X132865779Y-98063677D01*
X133071185Y-98153417D01*
X133290109Y-98201551D01*
X133514214Y-98206245D01*
X133734962Y-98167321D01*
X133943946Y-98086262D01*
X134133206Y-97966154D01*
X134295532Y-97811573D01*
X134424741Y-97628407D01*
X134515913Y-97423632D01*
X134565573Y-97205049D01*
X134569149Y-96949023D01*
X134549195Y-96848249D01*
X151864864Y-96848249D01*
X151908925Y-97088318D01*
X151998776Y-97315257D01*
X152130996Y-97520421D01*
X152300547Y-97695997D01*
X152500972Y-97835296D01*
X152724637Y-97933012D01*
X152963021Y-97985425D01*
X153207047Y-97990536D01*
X153447417Y-97948152D01*
X153674977Y-97859887D01*
X153881060Y-97729104D01*
X154057815Y-97560782D01*
X154198509Y-97361335D01*
X154297785Y-97138358D01*
X154351860Y-96900344D01*
X154355753Y-96621561D01*
X154308345Y-96382130D01*
X154215334Y-96156469D01*
X154080263Y-95953170D01*
X154027484Y-95900021D01*
X158798997Y-95900021D01*
X158844856Y-96149888D01*
X158938375Y-96386090D01*
X159075991Y-96599628D01*
X159252463Y-96782370D01*
X159461069Y-96927355D01*
X159693862Y-97029060D01*
X159941977Y-97083611D01*
X160195963Y-97088932D01*
X160446144Y-97044818D01*
X160682993Y-96952950D01*
X160897487Y-96816828D01*
X161081456Y-96641637D01*
X161165704Y-96522207D01*
X164984098Y-96522207D01*
X165024562Y-96742678D01*
X165107079Y-96951091D01*
X165228505Y-97139507D01*
X165384215Y-97300750D01*
X165568279Y-97428677D01*
X165773685Y-97518417D01*
X165992609Y-97566551D01*
X166216714Y-97571245D01*
X166437462Y-97532321D01*
X166646446Y-97451262D01*
X166835706Y-97331154D01*
X166998032Y-97176573D01*
X167127241Y-96993407D01*
X167218413Y-96788632D01*
X167268073Y-96570049D01*
X167268741Y-96522207D01*
X167524098Y-96522207D01*
X167564562Y-96742678D01*
X167647079Y-96951091D01*
X167768505Y-97139507D01*
X167924215Y-97300750D01*
X168108279Y-97428677D01*
X168313685Y-97518417D01*
X168532609Y-97566551D01*
X168756714Y-97571245D01*
X168977462Y-97532321D01*
X169186446Y-97451262D01*
X169375706Y-97331154D01*
X169538032Y-97176573D01*
X169667241Y-96993407D01*
X169758413Y-96788632D01*
X169808073Y-96570049D01*
X169808741Y-96522207D01*
X170064098Y-96522207D01*
X170104562Y-96742678D01*
X170187079Y-96951091D01*
X170308505Y-97139507D01*
X170464215Y-97300750D01*
X170648279Y-97428677D01*
X170853685Y-97518417D01*
X171072609Y-97566551D01*
X171296714Y-97571245D01*
X171517462Y-97532321D01*
X171726446Y-97451262D01*
X171915706Y-97331154D01*
X172078032Y-97176573D01*
X172207241Y-96993407D01*
X172298413Y-96788632D01*
X172348073Y-96570049D01*
X172351649Y-96314023D01*
X172308110Y-96094138D01*
X172222692Y-95886898D01*
X172098647Y-95700195D01*
X171940701Y-95541142D01*
X171754869Y-95415797D01*
X171548230Y-95328934D01*
X171328654Y-95283862D01*
X171104506Y-95282297D01*
X170884322Y-95324299D01*
X170676491Y-95408269D01*
X170488927Y-95531007D01*
X170328775Y-95687839D01*
X170202135Y-95872791D01*
X170113832Y-96078819D01*
X170067228Y-96298075D01*
X170064098Y-96522207D01*
X169808741Y-96522207D01*
X169811649Y-96314023D01*
X169768110Y-96094138D01*
X169682692Y-95886898D01*
X169558647Y-95700195D01*
X169400701Y-95541142D01*
X169214869Y-95415797D01*
X169008230Y-95328934D01*
X168788654Y-95283862D01*
X168564506Y-95282297D01*
X168344322Y-95324299D01*
X168136491Y-95408269D01*
X167948927Y-95531007D01*
X167788775Y-95687839D01*
X167662135Y-95872791D01*
X167573832Y-96078819D01*
X167527228Y-96298075D01*
X167524098Y-96522207D01*
X167268741Y-96522207D01*
X167271649Y-96314023D01*
X167228110Y-96094138D01*
X167142692Y-95886898D01*
X167018647Y-95700195D01*
X166860701Y-95541142D01*
X166674869Y-95415797D01*
X166468230Y-95328934D01*
X166248654Y-95283862D01*
X166024506Y-95282297D01*
X165804322Y-95324299D01*
X165596491Y-95408269D01*
X165408927Y-95531007D01*
X165248775Y-95687839D01*
X165122135Y-95872791D01*
X165033832Y-96078819D01*
X164987228Y-96298075D01*
X164984098Y-96522207D01*
X161165704Y-96522207D01*
X161227894Y-96434048D01*
X161331222Y-96201970D01*
X161387504Y-95954242D01*
X161391556Y-95664079D01*
X161342212Y-95414877D01*
X161245405Y-95180004D01*
X161104820Y-94968408D01*
X160925814Y-94788148D01*
X160715205Y-94646090D01*
X160481014Y-94547645D01*
X160232161Y-94496563D01*
X159978126Y-94494789D01*
X159728585Y-94542392D01*
X159493042Y-94637557D01*
X159280470Y-94776661D01*
X159098964Y-94954404D01*
X158955440Y-95164017D01*
X158855362Y-95397515D01*
X158802544Y-95646004D01*
X158798997Y-95900021D01*
X154027484Y-95900021D01*
X153908276Y-95779979D01*
X153705926Y-95643492D01*
X153480919Y-95548908D01*
X153241826Y-95499829D01*
X152997753Y-95498125D01*
X152757998Y-95543861D01*
X152531692Y-95635294D01*
X152327455Y-95768943D01*
X152153068Y-95939716D01*
X152015172Y-96141108D01*
X151919019Y-96365450D01*
X151868272Y-96604195D01*
X151864864Y-96848249D01*
X134549195Y-96848249D01*
X134525610Y-96729138D01*
X134440192Y-96521898D01*
X134316147Y-96335195D01*
X134158201Y-96176142D01*
X133972369Y-96050797D01*
X133765730Y-95963934D01*
X133546154Y-95918862D01*
X133322006Y-95917297D01*
X133101822Y-95959299D01*
X132893991Y-96043269D01*
X132706427Y-96166007D01*
X132546275Y-96322839D01*
X132419635Y-96507791D01*
X132331332Y-96713819D01*
X132284728Y-96933075D01*
X132281598Y-97157207D01*
X123607800Y-97157207D01*
X123607800Y-94788771D01*
X126413997Y-94788771D01*
X126459856Y-95038638D01*
X126553375Y-95274840D01*
X126690991Y-95488378D01*
X126867463Y-95671120D01*
X127076069Y-95816105D01*
X127308862Y-95917810D01*
X127556977Y-95972361D01*
X127810963Y-95977682D01*
X128061144Y-95933568D01*
X128297993Y-95841700D01*
X128512487Y-95705578D01*
X128696456Y-95530387D01*
X128842894Y-95322798D01*
X128946222Y-95090720D01*
X129002504Y-94842992D01*
X129005656Y-94617207D01*
X132281598Y-94617207D01*
X132322062Y-94837678D01*
X132404579Y-95046091D01*
X132526005Y-95234507D01*
X132681715Y-95395750D01*
X132865779Y-95523677D01*
X133071185Y-95613417D01*
X133290109Y-95661551D01*
X133514214Y-95666245D01*
X133734962Y-95627321D01*
X133943946Y-95546262D01*
X134133206Y-95426154D01*
X134295532Y-95271573D01*
X134424741Y-95088407D01*
X134515913Y-94883632D01*
X134565573Y-94665049D01*
X134569149Y-94409023D01*
X134525610Y-94189138D01*
X134440192Y-93981898D01*
X134316147Y-93795195D01*
X134158201Y-93636142D01*
X133972369Y-93510797D01*
X133765730Y-93423934D01*
X133546154Y-93378862D01*
X133322006Y-93377297D01*
X133101822Y-93419299D01*
X132893991Y-93503269D01*
X132706427Y-93626007D01*
X132546275Y-93782839D01*
X132419635Y-93967791D01*
X132331332Y-94173819D01*
X132284728Y-94393075D01*
X132281598Y-94617207D01*
X129005656Y-94617207D01*
X129006556Y-94552829D01*
X128957212Y-94303627D01*
X128860405Y-94068754D01*
X128719820Y-93857158D01*
X128540814Y-93676898D01*
X128330205Y-93534840D01*
X128147300Y-93457954D01*
X128233622Y-93442733D01*
X128479758Y-93347263D01*
X128702664Y-93205803D01*
X128893848Y-93023741D01*
X129046028Y-92808012D01*
X129153408Y-92566833D01*
X129211897Y-92309390D01*
X129215139Y-92077207D01*
X132281598Y-92077207D01*
X132322062Y-92297678D01*
X132404579Y-92506091D01*
X132526005Y-92694507D01*
X132681715Y-92855750D01*
X132865779Y-92983677D01*
X133071185Y-93073417D01*
X133290109Y-93121551D01*
X133514214Y-93126245D01*
X133734962Y-93087321D01*
X133943946Y-93006262D01*
X134133206Y-92886154D01*
X134295532Y-92731573D01*
X134300153Y-92725021D01*
X144352747Y-92725021D01*
X144398606Y-92974888D01*
X144492125Y-93211090D01*
X144629741Y-93424628D01*
X144806213Y-93607370D01*
X145014819Y-93752355D01*
X145247612Y-93854060D01*
X145495727Y-93908611D01*
X145749713Y-93913932D01*
X145999894Y-93869818D01*
X146236743Y-93777950D01*
X146451237Y-93641828D01*
X146635206Y-93466637D01*
X146781644Y-93259048D01*
X146884972Y-93026970D01*
X146941254Y-92779242D01*
X146945306Y-92489079D01*
X146895962Y-92239877D01*
X146799155Y-92005004D01*
X146658570Y-91793408D01*
X146479564Y-91613148D01*
X146268955Y-91471090D01*
X146034764Y-91372645D01*
X145785911Y-91321563D01*
X145531876Y-91319789D01*
X145282335Y-91367392D01*
X145046792Y-91462557D01*
X144834220Y-91601661D01*
X144652714Y-91779404D01*
X144509190Y-91989017D01*
X144409112Y-92222515D01*
X144356294Y-92471004D01*
X144352747Y-92725021D01*
X134300153Y-92725021D01*
X134424741Y-92548407D01*
X134515913Y-92343632D01*
X134565573Y-92125049D01*
X134569149Y-91869023D01*
X134535695Y-91700069D01*
X139774986Y-91700069D01*
X139846905Y-91847680D01*
X140017541Y-91942010D01*
X140203300Y-92001239D01*
X140397046Y-92023089D01*
X140591331Y-92006722D01*
X140778689Y-91952766D01*
X140951922Y-91863296D01*
X140975295Y-91847680D01*
X141047214Y-91700069D01*
X140411100Y-91063955D01*
X139774986Y-91700069D01*
X134535695Y-91700069D01*
X134525610Y-91649138D01*
X134440192Y-91441898D01*
X134316147Y-91255195D01*
X134158201Y-91096142D01*
X134037230Y-91014546D01*
X139416611Y-91014546D01*
X139432978Y-91208831D01*
X139486934Y-91396189D01*
X139576404Y-91569422D01*
X139592020Y-91592795D01*
X139739631Y-91664714D01*
X140375745Y-91028600D01*
X140446455Y-91028600D01*
X141082569Y-91664714D01*
X141230180Y-91592795D01*
X141324510Y-91422159D01*
X141383739Y-91236400D01*
X141386840Y-91208899D01*
X147954900Y-91208899D01*
X147954900Y-92753301D01*
X147980538Y-93014779D01*
X148056476Y-93266298D01*
X148179821Y-93498277D01*
X148345876Y-93701880D01*
X148548315Y-93869351D01*
X148779427Y-93994313D01*
X149030409Y-94072005D01*
X149291702Y-94099468D01*
X149553353Y-94075656D01*
X149805395Y-94001476D01*
X150038230Y-93879753D01*
X150242987Y-93715124D01*
X150411868Y-93513860D01*
X150538440Y-93283626D01*
X150617882Y-93033192D01*
X150647169Y-92772097D01*
X150647300Y-92753301D01*
X150647300Y-92006100D01*
X150800500Y-92006100D01*
X150800500Y-92768100D01*
X150825372Y-92970631D01*
X150889278Y-93164418D01*
X150989762Y-93342014D01*
X151122963Y-93496594D01*
X151283761Y-93622217D01*
X151465977Y-93714056D01*
X151653669Y-93766681D01*
X151816100Y-93713728D01*
X151816100Y-92006100D01*
X151866100Y-92006100D01*
X151866100Y-93713728D01*
X152028531Y-93766681D01*
X152216223Y-93714056D01*
X152398439Y-93622217D01*
X152559237Y-93496594D01*
X152692438Y-93342014D01*
X152792922Y-93164418D01*
X152856828Y-92970631D01*
X152881700Y-92768100D01*
X152881700Y-92006100D01*
X151866100Y-92006100D01*
X151816100Y-92006100D01*
X150800500Y-92006100D01*
X150647300Y-92006100D01*
X150647300Y-91208899D01*
X150645849Y-91194100D01*
X150800500Y-91194100D01*
X150800500Y-91956100D01*
X151816100Y-91956100D01*
X151816100Y-90248472D01*
X151866100Y-90248472D01*
X151866100Y-91956100D01*
X152881700Y-91956100D01*
X152881700Y-91455021D01*
X153560247Y-91455021D01*
X153606106Y-91704888D01*
X153699625Y-91941090D01*
X153837241Y-92154628D01*
X154013713Y-92337370D01*
X154222319Y-92482355D01*
X154455112Y-92584060D01*
X154703227Y-92638611D01*
X154957213Y-92643932D01*
X155207394Y-92599818D01*
X155444243Y-92507950D01*
X155658737Y-92371828D01*
X155842706Y-92196637D01*
X155989144Y-91989048D01*
X156092472Y-91756970D01*
X156148754Y-91509242D01*
X156149511Y-91455021D01*
X166260247Y-91455021D01*
X166306106Y-91704888D01*
X166399625Y-91941090D01*
X166537241Y-92154628D01*
X166713713Y-92337370D01*
X166922319Y-92482355D01*
X167155112Y-92584060D01*
X167403227Y-92638611D01*
X167657213Y-92643932D01*
X167907394Y-92599818D01*
X168144243Y-92507950D01*
X168358737Y-92371828D01*
X168542706Y-92196637D01*
X168689144Y-91989048D01*
X168792472Y-91756970D01*
X168848754Y-91509242D01*
X168852806Y-91219079D01*
X168803462Y-90969877D01*
X168706655Y-90735004D01*
X168566070Y-90523408D01*
X168387064Y-90343148D01*
X168176455Y-90201090D01*
X167942264Y-90102645D01*
X167693411Y-90051563D01*
X167439376Y-90049789D01*
X167189835Y-90097392D01*
X166954292Y-90192557D01*
X166741720Y-90331661D01*
X166560214Y-90509404D01*
X166416690Y-90719017D01*
X166316612Y-90952515D01*
X166263794Y-91201004D01*
X166260247Y-91455021D01*
X156149511Y-91455021D01*
X156152806Y-91219079D01*
X156103462Y-90969877D01*
X156006655Y-90735004D01*
X155866070Y-90523408D01*
X155687064Y-90343148D01*
X155476455Y-90201090D01*
X155242264Y-90102645D01*
X154993411Y-90051563D01*
X154739376Y-90049789D01*
X154489835Y-90097392D01*
X154254292Y-90192557D01*
X154041720Y-90331661D01*
X153860214Y-90509404D01*
X153716690Y-90719017D01*
X153616612Y-90952515D01*
X153563794Y-91201004D01*
X153560247Y-91455021D01*
X152881700Y-91455021D01*
X152881700Y-91194100D01*
X152856828Y-90991569D01*
X152792922Y-90797782D01*
X152692438Y-90620186D01*
X152559237Y-90465606D01*
X152398439Y-90339983D01*
X152216223Y-90248144D01*
X152028531Y-90195519D01*
X151866100Y-90248472D01*
X151816100Y-90248472D01*
X151653669Y-90195519D01*
X151465977Y-90248144D01*
X151283761Y-90339983D01*
X151122963Y-90465606D01*
X150989762Y-90620186D01*
X150889278Y-90797782D01*
X150825372Y-90991569D01*
X150800500Y-91194100D01*
X150645849Y-91194100D01*
X150621662Y-90947421D01*
X150545724Y-90695902D01*
X150422379Y-90463923D01*
X150256324Y-90260320D01*
X150053885Y-90092849D01*
X149822773Y-89967887D01*
X149571791Y-89890195D01*
X149310498Y-89862732D01*
X149048847Y-89886544D01*
X148796805Y-89960724D01*
X148563970Y-90082447D01*
X148359213Y-90247076D01*
X148190332Y-90448340D01*
X148063760Y-90678574D01*
X147984318Y-90929008D01*
X147955031Y-91190103D01*
X147954900Y-91208899D01*
X141386840Y-91208899D01*
X141405589Y-91042654D01*
X141389222Y-90848369D01*
X141335266Y-90661011D01*
X141245796Y-90487778D01*
X141230180Y-90464405D01*
X141082569Y-90392486D01*
X140446455Y-91028600D01*
X140375745Y-91028600D01*
X139739631Y-90392486D01*
X139592020Y-90464405D01*
X139497690Y-90635041D01*
X139438461Y-90820800D01*
X139416611Y-91014546D01*
X134037230Y-91014546D01*
X133972369Y-90970797D01*
X133765730Y-90883934D01*
X133546154Y-90838862D01*
X133322006Y-90837297D01*
X133101822Y-90879299D01*
X132893991Y-90963269D01*
X132706427Y-91086007D01*
X132546275Y-91242839D01*
X132419635Y-91427791D01*
X132331332Y-91633819D01*
X132284728Y-91853075D01*
X132281598Y-92077207D01*
X129215139Y-92077207D01*
X129216108Y-92007848D01*
X129164829Y-91748873D01*
X129064226Y-91504789D01*
X128918128Y-91284895D01*
X128732102Y-91097566D01*
X128513234Y-90949937D01*
X128269858Y-90847632D01*
X128011247Y-90794546D01*
X127747250Y-90792703D01*
X127487923Y-90842173D01*
X127243143Y-90941070D01*
X127022234Y-91085629D01*
X126833611Y-91270342D01*
X126684458Y-91488175D01*
X126580456Y-91730830D01*
X126525566Y-91989064D01*
X126521880Y-92253042D01*
X126569538Y-92512709D01*
X126666724Y-92758173D01*
X126809737Y-92980085D01*
X126993129Y-93169994D01*
X127209915Y-93320664D01*
X127426560Y-93415313D01*
X127343585Y-93431142D01*
X127108042Y-93526307D01*
X126895470Y-93665411D01*
X126713964Y-93843154D01*
X126570440Y-94052767D01*
X126470362Y-94286265D01*
X126417544Y-94534754D01*
X126413997Y-94788771D01*
X123607800Y-94788771D01*
X123607800Y-91664115D01*
X123718131Y-91778366D01*
X123973243Y-91955674D01*
X124257937Y-92080054D01*
X124561367Y-92146767D01*
X124871976Y-92153273D01*
X125177934Y-92099325D01*
X125467586Y-91986976D01*
X125729900Y-91820507D01*
X125954884Y-91606257D01*
X126133969Y-91352389D01*
X126260333Y-91068571D01*
X126329163Y-90765614D01*
X126334118Y-90410761D01*
X126323499Y-90357131D01*
X139774986Y-90357131D01*
X140411100Y-90993245D01*
X141047214Y-90357131D01*
X140975295Y-90209520D01*
X140804659Y-90115190D01*
X140618900Y-90055961D01*
X140425154Y-90034111D01*
X140230869Y-90050478D01*
X140043511Y-90104434D01*
X139870278Y-90193904D01*
X139846905Y-90209520D01*
X139774986Y-90357131D01*
X126323499Y-90357131D01*
X126273773Y-90106000D01*
X126155383Y-89818765D01*
X125983457Y-89559995D01*
X125899351Y-89475300D01*
X171099410Y-89475300D01*
X171030411Y-89542869D01*
M02*
