G04 #@! TF.FileFunction,Soldermask,Bot*
%FSLAX46Y46*%
G04 Gerber Fmt 4.6, Leading zero omitted, Abs format (unit mm)*
G04 Created by KiCad (PCBNEW 4.0.7) date 03/29/18 03:52:59*
%MOMM*%
%LPD*%
G01*
G04 APERTURE LIST*
%ADD10C,0.100000*%
%ADD11C,1.720800*%
%ADD12C,1.670000*%
%ADD13C,2.559000*%
%ADD14C,1.924000*%
%ADD15C,1.822400*%
%ADD16C,1.517600*%
%ADD17O,1.924000X3.448000*%
G04 APERTURE END LIST*
D10*
D11*
X125171100Y-111824850D03*
X130251100Y-111824850D03*
X134854850Y-103093600D03*
X134854850Y-108173600D03*
D12*
X134759600Y-111983600D03*
X132727600Y-111983600D03*
D13*
X169144850Y-116587350D03*
X169144850Y-101347350D03*
D14*
X127869850Y-92139850D03*
X162953600Y-118651100D03*
D11*
X147554850Y-109126100D03*
X145014850Y-111666100D03*
X147554850Y-114206100D03*
X153111100Y-96743600D03*
X150571100Y-99283600D03*
X153111100Y-101823600D03*
D15*
X127711100Y-107379850D03*
X127711100Y-94679850D03*
D16*
X161207350Y-111189850D03*
X158667350Y-111189850D03*
X156127350Y-111189850D03*
D15*
X145649850Y-105316100D03*
X145649850Y-92616100D03*
X154857350Y-91346100D03*
X167557350Y-91346100D03*
X160096100Y-108491100D03*
X160096100Y-95791100D03*
X140411100Y-118651100D03*
X140411100Y-105951100D03*
D16*
X133426100Y-91981100D03*
X133426100Y-94521100D03*
X133426100Y-97061100D03*
X127373600Y-118444850D03*
X129913600Y-118444850D03*
X132453600Y-118444850D03*
X171208600Y-96426100D03*
X168668600Y-96426100D03*
X166128600Y-96426100D03*
D15*
X140411100Y-91028600D03*
X140411100Y-103728600D03*
D17*
X149301100Y-91981100D03*
X151841100Y-91981100D03*
M02*
