G04 #@! TF.FileFunction,Legend,Top*
%FSLAX46Y46*%
G04 Gerber Fmt 4.6, Leading zero omitted, Abs format (unit mm)*
G04 Created by KiCad (PCBNEW 4.0.7) date 03/29/18 03:52:59*
%MOMM*%
%LPD*%
G01*
G04 APERTURE LIST*
%ADD10C,0.100000*%
%ADD11C,0.101600*%
%ADD12C,0.065024*%
%ADD13C,0.152400*%
%ADD14C,0.304800*%
%ADD15C,0.050800*%
%ADD16C,0.254000*%
%ADD17C,0.150000*%
%ADD18C,0.120650*%
%ADD19C,0.127000*%
%ADD20C,0.118872*%
%ADD21C,0.096520*%
G04 APERTURE END LIST*
D10*
D11*
X141456229Y-119960571D02*
X141054062Y-119960571D01*
X141054062Y-120592548D02*
X141054062Y-119386048D01*
X141628586Y-119386048D01*
X142605276Y-119788214D02*
X142605276Y-120592548D01*
X142088205Y-119788214D02*
X142088205Y-120420190D01*
X142145657Y-120535095D01*
X142260562Y-120592548D01*
X142432919Y-120592548D01*
X142547824Y-120535095D01*
X142605276Y-120477643D01*
X143064895Y-119788214D02*
X143696871Y-119788214D01*
X143064895Y-120592548D01*
X143696871Y-120592548D01*
X144041585Y-119788214D02*
X144673561Y-119788214D01*
X144041585Y-120592548D01*
X144673561Y-120592548D01*
X146454585Y-119960571D02*
X146052418Y-119960571D01*
X146052418Y-120592548D02*
X146052418Y-119386048D01*
X146626942Y-119386048D01*
X147603632Y-120592548D02*
X147603632Y-119960571D01*
X147546180Y-119845667D01*
X147431275Y-119788214D01*
X147201466Y-119788214D01*
X147086561Y-119845667D01*
X147603632Y-120535095D02*
X147488728Y-120592548D01*
X147201466Y-120592548D01*
X147086561Y-120535095D01*
X147029109Y-120420190D01*
X147029109Y-120305286D01*
X147086561Y-120190381D01*
X147201466Y-120132929D01*
X147488728Y-120132929D01*
X147603632Y-120075476D01*
X148695227Y-120535095D02*
X148580323Y-120592548D01*
X148350513Y-120592548D01*
X148235608Y-120535095D01*
X148178156Y-120477643D01*
X148120704Y-120362738D01*
X148120704Y-120018024D01*
X148178156Y-119903119D01*
X148235608Y-119845667D01*
X148350513Y-119788214D01*
X148580323Y-119788214D01*
X148695227Y-119845667D01*
X149671918Y-120535095D02*
X149557013Y-120592548D01*
X149327204Y-120592548D01*
X149212299Y-120535095D01*
X149154847Y-120420190D01*
X149154847Y-119960571D01*
X149212299Y-119845667D01*
X149327204Y-119788214D01*
X149557013Y-119788214D01*
X149671918Y-119845667D01*
X149729370Y-119960571D01*
X149729370Y-120075476D01*
X149154847Y-120190381D01*
X151855108Y-120477643D02*
X151797656Y-120535095D01*
X151625299Y-120592548D01*
X151510394Y-120592548D01*
X151338037Y-120535095D01*
X151223132Y-120420190D01*
X151165680Y-120305286D01*
X151108228Y-120075476D01*
X151108228Y-119903119D01*
X151165680Y-119673310D01*
X151223132Y-119558405D01*
X151338037Y-119443500D01*
X151510394Y-119386048D01*
X151625299Y-119386048D01*
X151797656Y-119443500D01*
X151855108Y-119500952D01*
X152544537Y-120592548D02*
X152429632Y-120535095D01*
X152372180Y-120420190D01*
X152372180Y-119386048D01*
X153176513Y-120592548D02*
X153061608Y-120535095D01*
X153004156Y-120477643D01*
X152946704Y-120362738D01*
X152946704Y-120018024D01*
X153004156Y-119903119D01*
X153061608Y-119845667D01*
X153176513Y-119788214D01*
X153348870Y-119788214D01*
X153463775Y-119845667D01*
X153521227Y-119903119D01*
X153578680Y-120018024D01*
X153578680Y-120362738D01*
X153521227Y-120477643D01*
X153463775Y-120535095D01*
X153348870Y-120592548D01*
X153176513Y-120592548D01*
X154095751Y-119788214D02*
X154095751Y-120592548D01*
X154095751Y-119903119D02*
X154153203Y-119845667D01*
X154268108Y-119788214D01*
X154440465Y-119788214D01*
X154555370Y-119845667D01*
X154612822Y-119960571D01*
X154612822Y-120592548D01*
X155646965Y-120535095D02*
X155532060Y-120592548D01*
X155302251Y-120592548D01*
X155187346Y-120535095D01*
X155129894Y-120420190D01*
X155129894Y-119960571D01*
X155187346Y-119845667D01*
X155302251Y-119788214D01*
X155532060Y-119788214D01*
X155646965Y-119845667D01*
X155704417Y-119960571D01*
X155704417Y-120075476D01*
X155129894Y-120190381D01*
X157830155Y-120592548D02*
X157427989Y-120018024D01*
X157140727Y-120592548D02*
X157140727Y-119386048D01*
X157600346Y-119386048D01*
X157715251Y-119443500D01*
X157772703Y-119500952D01*
X157830155Y-119615857D01*
X157830155Y-119788214D01*
X157772703Y-119903119D01*
X157715251Y-119960571D01*
X157600346Y-120018024D01*
X157140727Y-120018024D01*
X158806846Y-120535095D02*
X158691941Y-120592548D01*
X158462132Y-120592548D01*
X158347227Y-120535095D01*
X158289775Y-120420190D01*
X158289775Y-119960571D01*
X158347227Y-119845667D01*
X158462132Y-119788214D01*
X158691941Y-119788214D01*
X158806846Y-119845667D01*
X158864298Y-119960571D01*
X158864298Y-120075476D01*
X158289775Y-120190381D01*
X159266465Y-119788214D02*
X159553727Y-120592548D01*
X159840989Y-119788214D01*
X161162394Y-120247833D02*
X161736917Y-120247833D01*
X161047489Y-120592548D02*
X161449655Y-119386048D01*
X161851822Y-120592548D01*
D12*
X145992548Y-90842374D02*
X146580860Y-90842374D01*
X146985325Y-91136530D02*
X147132403Y-91136530D01*
X147205942Y-91099761D01*
X147242712Y-91062991D01*
X147316251Y-90952683D01*
X147353020Y-90805605D01*
X147353020Y-90511449D01*
X147316251Y-90437910D01*
X147279481Y-90401140D01*
X147205942Y-90364370D01*
X147058864Y-90364370D01*
X146985325Y-90401140D01*
X146948556Y-90437910D01*
X146911786Y-90511449D01*
X146911786Y-90695296D01*
X146948556Y-90768835D01*
X146985325Y-90805605D01*
X147058864Y-90842374D01*
X147205942Y-90842374D01*
X147279481Y-90805605D01*
X147316251Y-90768835D01*
X147353020Y-90695296D01*
X147573637Y-90364370D02*
X147831024Y-91136530D01*
X148088410Y-90364370D01*
X153064512Y-89639140D02*
X152990973Y-89602370D01*
X152880665Y-89602370D01*
X152770356Y-89639140D01*
X152696817Y-89712679D01*
X152660048Y-89786218D01*
X152623278Y-89933296D01*
X152623278Y-90043605D01*
X152660048Y-90190683D01*
X152696817Y-90264222D01*
X152770356Y-90337761D01*
X152880665Y-90374530D01*
X152954204Y-90374530D01*
X153064512Y-90337761D01*
X153101282Y-90300991D01*
X153101282Y-90043605D01*
X152954204Y-90043605D01*
X153432208Y-90374530D02*
X153432208Y-89602370D01*
X153873442Y-90374530D01*
X153873442Y-89602370D01*
X154241138Y-90374530D02*
X154241138Y-89602370D01*
X154424985Y-89602370D01*
X154535294Y-89639140D01*
X154608833Y-89712679D01*
X154645602Y-89786218D01*
X154682372Y-89933296D01*
X154682372Y-90043605D01*
X154645602Y-90190683D01*
X154608833Y-90264222D01*
X154535294Y-90337761D01*
X154424985Y-90374530D01*
X154241138Y-90374530D01*
D13*
X129108100Y-111824850D02*
X128219100Y-111824850D01*
X128219100Y-111824850D02*
X128219100Y-110935850D01*
X128219100Y-110935850D02*
X127888900Y-110935850D01*
X127888900Y-110935850D02*
X127888900Y-112713850D01*
X127888900Y-112713850D02*
X128219100Y-112713850D01*
X128219100Y-112713850D02*
X128219100Y-111824850D01*
X127203100Y-111824850D02*
X126314100Y-111824850D01*
X128981100Y-112459850D02*
X128981100Y-112967850D01*
X128727100Y-112713850D02*
X129235100Y-112713850D01*
X127533300Y-112713850D02*
X127533300Y-110935850D01*
X127203100Y-112713850D02*
X127533300Y-112713850D01*
X127533300Y-110935850D02*
X127203100Y-110935850D01*
X127203100Y-110935850D02*
X127203100Y-111824850D01*
X127203100Y-111824850D02*
X127203100Y-112713850D01*
X127380900Y-111062850D02*
X127380900Y-112586850D01*
X124840900Y-113182250D02*
G75*
G03X130581300Y-113182250I2870200J1357400D01*
G01*
X124840900Y-110467450D02*
G75*
G02X130581300Y-110467450I2870200J-1357400D01*
G01*
X134854850Y-107030600D02*
X134854850Y-106141600D01*
X134854850Y-106141600D02*
X135743850Y-106141600D01*
X135743850Y-106141600D02*
X135743850Y-105811400D01*
X135743850Y-105811400D02*
X133965850Y-105811400D01*
X133965850Y-105811400D02*
X133965850Y-106141600D01*
X133965850Y-106141600D02*
X134854850Y-106141600D01*
X134854850Y-105125600D02*
X134854850Y-104236600D01*
X134219850Y-106903600D02*
X133711850Y-106903600D01*
X133965850Y-106649600D02*
X133965850Y-107157600D01*
X133965850Y-105455800D02*
X135743850Y-105455800D01*
X133965850Y-105125600D02*
X133965850Y-105455800D01*
X135743850Y-105455800D02*
X135743850Y-105125600D01*
X135743850Y-105125600D02*
X134854850Y-105125600D01*
X134854850Y-105125600D02*
X133965850Y-105125600D01*
X135616850Y-105303400D02*
X134092850Y-105303400D01*
X133497450Y-102763400D02*
G75*
G03X133497450Y-108503800I1357400J-2870200D01*
G01*
X136212250Y-102763400D02*
G75*
G02X136212250Y-108503800I-1357400J-2870200D01*
G01*
X132981600Y-110459600D02*
X133489600Y-110459600D01*
X133235600Y-110713600D02*
X133235600Y-110205600D01*
X134124600Y-110459600D02*
X134632600Y-110459600D01*
X135902600Y-111983600D02*
G75*
G03X135902600Y-111983600I-2159000J0D01*
G01*
X169144850Y-113031350D02*
X169144850Y-112142350D01*
X169144850Y-112142350D02*
X170414850Y-112142350D01*
X170414850Y-112142350D02*
X170414850Y-111634350D01*
X170414850Y-111634350D02*
X167874850Y-111634350D01*
X167874850Y-111634350D02*
X167874850Y-112142350D01*
X167874850Y-112142350D02*
X169144850Y-112142350D01*
X169144850Y-110872350D02*
X169144850Y-103760350D01*
X168001850Y-112777350D02*
X168509850Y-112777350D01*
X168255850Y-113031350D02*
X168255850Y-112523350D01*
X172065850Y-114682350D02*
X166223850Y-114682350D01*
X165969850Y-113158350D02*
X165969850Y-103506350D01*
X166223850Y-103252350D02*
X165969850Y-103506350D01*
X166223850Y-113412350D02*
X165969850Y-113158350D01*
X165969850Y-114428350D02*
X166223850Y-114682350D01*
X165969850Y-114047350D02*
X166223850Y-113793350D01*
D14*
X166096850Y-114428350D02*
X166096850Y-114047350D01*
D13*
X165969850Y-114428350D02*
X165969850Y-114047350D01*
X166223850Y-114682350D02*
X166223850Y-113793350D01*
X166223850Y-113793350D02*
X166477850Y-113793350D01*
X166223850Y-113412350D02*
X166477850Y-113412350D01*
D14*
X166096850Y-113158350D02*
X166096850Y-103506350D01*
D13*
X166223850Y-113412350D02*
X166223850Y-103252350D01*
X166477850Y-113793350D02*
X166477850Y-113412350D01*
X166223850Y-113793350D02*
X166223850Y-113412350D01*
X172319850Y-113158350D02*
X172319850Y-103506350D01*
X166477850Y-113793350D02*
X171938850Y-113793350D01*
X171938850Y-113793350D02*
X172015050Y-113793350D01*
X166477850Y-113412350D02*
X171938850Y-113412350D01*
X171938850Y-113412350D02*
X172015050Y-113412350D01*
X172065850Y-113793350D02*
X172065850Y-113412350D01*
X171938850Y-113793350D02*
X171938850Y-113412350D01*
X166223850Y-103252350D02*
X172065850Y-103252350D01*
X172065850Y-103252350D02*
X172192850Y-103379350D01*
X172065850Y-114682350D02*
X172192850Y-114555350D01*
X172192850Y-114555350D02*
X172319850Y-114428350D01*
X172319850Y-114047350D02*
X172192850Y-113920350D01*
X172192850Y-113920350D02*
X172065850Y-113793350D01*
X172319850Y-114428350D02*
X172319850Y-114047350D01*
X172192850Y-114555350D02*
X172192850Y-113920350D01*
X172065850Y-113412350D02*
X172192850Y-113285350D01*
X172192850Y-113285350D02*
X172319850Y-113158350D01*
X172192850Y-113285350D02*
X172192850Y-103379350D01*
X172192850Y-103379350D02*
X172319850Y-103506350D01*
X172269050Y-103506350D02*
X172269050Y-113158350D01*
X172269050Y-113158350D02*
X172319850Y-113158350D01*
X172269050Y-114047350D02*
X172269050Y-114428350D01*
X172269050Y-114428350D02*
X172319850Y-114428350D01*
X172015050Y-113412350D02*
X172015050Y-113793350D01*
X172015050Y-113412350D02*
X172065850Y-113412350D01*
X172015050Y-113793350D02*
X172065850Y-113793350D01*
D14*
X166350850Y-113666350D02*
X166350850Y-113539350D01*
D10*
G36*
X170414850Y-111253350D02*
X170414850Y-110745350D01*
X167874850Y-110745350D01*
X167874850Y-111253350D01*
X170414850Y-111253350D01*
G37*
G36*
X169398850Y-115444350D02*
X169398850Y-114682350D01*
X168890850Y-114682350D01*
X168890850Y-115444350D01*
X169398850Y-115444350D01*
G37*
G36*
X169398850Y-103252350D02*
X169398850Y-102490350D01*
X168890850Y-102490350D01*
X168890850Y-103252350D01*
X169398850Y-103252350D01*
G37*
D13*
X127234850Y-90869850D02*
X128504850Y-90869850D01*
X128504850Y-90869850D02*
X129139850Y-91504850D01*
X129139850Y-91504850D02*
X129139850Y-92774850D01*
X129139850Y-92774850D02*
X128504850Y-93409850D01*
X126599850Y-91504850D02*
X126599850Y-92774850D01*
X127234850Y-90869850D02*
X126599850Y-91504850D01*
X126599850Y-92774850D02*
X127234850Y-93409850D01*
X128504850Y-93409850D02*
X127234850Y-93409850D01*
X162318600Y-117381100D02*
X163588600Y-117381100D01*
X163588600Y-117381100D02*
X164223600Y-118016100D01*
X164223600Y-118016100D02*
X164223600Y-119286100D01*
X164223600Y-119286100D02*
X163588600Y-119921100D01*
X161683600Y-118016100D02*
X161683600Y-119286100D01*
X162318600Y-117381100D02*
X161683600Y-118016100D01*
X161683600Y-119286100D02*
X162318600Y-119921100D01*
X163588600Y-119921100D02*
X162318600Y-119921100D01*
X151593450Y-108135500D02*
X151060050Y-108668900D01*
X150526650Y-108135500D02*
X151060050Y-107602100D01*
X151060050Y-107602100D02*
X151593450Y-108135500D01*
X152126850Y-111666100D02*
G75*
G03X152126850Y-111666100I-4572000J0D01*
G01*
D15*
X151415650Y-111666100D02*
G75*
G03X151415650Y-111666100I-3860800J0D01*
G01*
D13*
X157149700Y-95753000D02*
X156616300Y-96286400D01*
X156082900Y-95753000D02*
X156616300Y-95219600D01*
X156616300Y-95219600D02*
X157149700Y-95753000D01*
X157683100Y-99283600D02*
G75*
G03X157683100Y-99283600I-4572000J0D01*
G01*
D15*
X156971900Y-99283600D02*
G75*
G03X156971900Y-99283600I-3860800J0D01*
G01*
D13*
X129362100Y-95949850D02*
X126060100Y-95949850D01*
X126060100Y-95949850D02*
G75*
G03X125679100Y-96330850I0J-381000D01*
G01*
X129743100Y-105728850D02*
G75*
G02X129362100Y-106109850I-381000J0D01*
G01*
X129362100Y-95949850D02*
G75*
G02X129743100Y-96330850I0J-381000D01*
G01*
X125679100Y-105728850D02*
G75*
G03X126060100Y-106109850I381000J0D01*
G01*
X125679100Y-96330850D02*
X125679100Y-96965850D01*
X125806100Y-97092850D02*
X125679100Y-96965850D01*
X129743100Y-96330850D02*
X129743100Y-96965850D01*
X129616100Y-97092850D02*
X129743100Y-96965850D01*
X125806100Y-104966850D02*
X125679100Y-105093850D01*
X125806100Y-104966850D02*
X125806100Y-97092850D01*
X129616100Y-104966850D02*
X129743100Y-105093850D01*
X129616100Y-104966850D02*
X129616100Y-97092850D01*
X126060100Y-106109850D02*
X129362100Y-106109850D01*
X125679100Y-105728850D02*
X125679100Y-105093850D01*
X129743100Y-105728850D02*
X129743100Y-105093850D01*
D10*
G36*
X128092100Y-106389250D02*
X128092100Y-106109850D01*
X127330100Y-106109850D01*
X127330100Y-106389250D01*
X128092100Y-106389250D01*
G37*
G36*
X128092100Y-95949850D02*
X128092100Y-95670450D01*
X127330100Y-95670450D01*
X127330100Y-95949850D01*
X128092100Y-95949850D01*
G37*
D16*
X163467350Y-109939850D02*
X163467350Y-114489850D01*
X163467350Y-114489850D02*
X153867350Y-114489850D01*
X153867350Y-114489850D02*
X153867350Y-109939850D01*
X153867350Y-109939850D02*
X155467350Y-109939850D01*
X155467350Y-109939850D02*
X155467350Y-110189850D01*
X155467350Y-110189850D02*
X161867350Y-110189850D01*
X161867350Y-110189850D02*
X161867350Y-109939850D01*
X161867350Y-109939850D02*
X163467350Y-109939850D01*
D13*
X153717350Y-114289850D02*
X152517350Y-114289850D01*
X152517350Y-114289850D02*
X152517350Y-113489850D01*
X152517350Y-113489850D02*
X152967350Y-113489850D01*
X152967350Y-113489850D02*
X152967350Y-112939850D01*
X152967350Y-112939850D02*
X152517350Y-112939850D01*
X152517350Y-112939850D02*
X152517350Y-112089850D01*
X152517350Y-112089850D02*
X153717350Y-112089850D01*
X147300850Y-93886100D02*
X143998850Y-93886100D01*
X143998850Y-93886100D02*
G75*
G03X143617850Y-94267100I0J-381000D01*
G01*
X147681850Y-103665100D02*
G75*
G02X147300850Y-104046100I-381000J0D01*
G01*
X147300850Y-93886100D02*
G75*
G02X147681850Y-94267100I0J-381000D01*
G01*
X143617850Y-103665100D02*
G75*
G03X143998850Y-104046100I381000J0D01*
G01*
X143617850Y-94267100D02*
X143617850Y-94902100D01*
X143744850Y-95029100D02*
X143617850Y-94902100D01*
X147681850Y-94267100D02*
X147681850Y-94902100D01*
X147554850Y-95029100D02*
X147681850Y-94902100D01*
X143744850Y-102903100D02*
X143617850Y-103030100D01*
X143744850Y-102903100D02*
X143744850Y-95029100D01*
X147554850Y-102903100D02*
X147681850Y-103030100D01*
X147554850Y-102903100D02*
X147554850Y-95029100D01*
X143998850Y-104046100D02*
X147300850Y-104046100D01*
X143617850Y-103665100D02*
X143617850Y-103030100D01*
X147681850Y-103665100D02*
X147681850Y-103030100D01*
D10*
G36*
X146030850Y-104325500D02*
X146030850Y-104046100D01*
X145268850Y-104046100D01*
X145268850Y-104325500D01*
X146030850Y-104325500D01*
G37*
G36*
X146030850Y-93886100D02*
X146030850Y-93606700D01*
X145268850Y-93606700D01*
X145268850Y-93886100D01*
X146030850Y-93886100D01*
G37*
D13*
X166287350Y-92997100D02*
X166287350Y-89695100D01*
X166287350Y-89695100D02*
G75*
G03X165906350Y-89314100I-381000J0D01*
G01*
X156508350Y-93378100D02*
G75*
G02X156127350Y-92997100I0J381000D01*
G01*
X166287350Y-92997100D02*
G75*
G02X165906350Y-93378100I-381000J0D01*
G01*
X156508350Y-89314100D02*
G75*
G03X156127350Y-89695100I0J-381000D01*
G01*
X165906350Y-89314100D02*
X165271350Y-89314100D01*
X165144350Y-89441100D02*
X165271350Y-89314100D01*
X165906350Y-93378100D02*
X165271350Y-93378100D01*
X165144350Y-93251100D02*
X165271350Y-93378100D01*
X157270350Y-89441100D02*
X157143350Y-89314100D01*
X157270350Y-89441100D02*
X165144350Y-89441100D01*
X157270350Y-93251100D02*
X157143350Y-93378100D01*
X157270350Y-93251100D02*
X165144350Y-93251100D01*
X156127350Y-89695100D02*
X156127350Y-92997100D01*
X156508350Y-89314100D02*
X157143350Y-89314100D01*
X156508350Y-93378100D02*
X157143350Y-93378100D01*
D10*
G36*
X155847950Y-91727100D02*
X156127350Y-91727100D01*
X156127350Y-90965100D01*
X155847950Y-90965100D01*
X155847950Y-91727100D01*
G37*
G36*
X166287350Y-91727100D02*
X166566750Y-91727100D01*
X166566750Y-90965100D01*
X166287350Y-90965100D01*
X166287350Y-91727100D01*
G37*
D13*
X161747100Y-97061100D02*
X158445100Y-97061100D01*
X158445100Y-97061100D02*
G75*
G03X158064100Y-97442100I0J-381000D01*
G01*
X162128100Y-106840100D02*
G75*
G02X161747100Y-107221100I-381000J0D01*
G01*
X161747100Y-97061100D02*
G75*
G02X162128100Y-97442100I0J-381000D01*
G01*
X158064100Y-106840100D02*
G75*
G03X158445100Y-107221100I381000J0D01*
G01*
X158064100Y-97442100D02*
X158064100Y-98077100D01*
X158191100Y-98204100D02*
X158064100Y-98077100D01*
X162128100Y-97442100D02*
X162128100Y-98077100D01*
X162001100Y-98204100D02*
X162128100Y-98077100D01*
X158191100Y-106078100D02*
X158064100Y-106205100D01*
X158191100Y-106078100D02*
X158191100Y-98204100D01*
X162001100Y-106078100D02*
X162128100Y-106205100D01*
X162001100Y-106078100D02*
X162001100Y-98204100D01*
X158445100Y-107221100D02*
X161747100Y-107221100D01*
X158064100Y-106840100D02*
X158064100Y-106205100D01*
X162128100Y-106840100D02*
X162128100Y-106205100D01*
D10*
G36*
X160477100Y-107500500D02*
X160477100Y-107221100D01*
X159715100Y-107221100D01*
X159715100Y-107500500D01*
X160477100Y-107500500D01*
G37*
G36*
X160477100Y-97061100D02*
X160477100Y-96781700D01*
X159715100Y-96781700D01*
X159715100Y-97061100D01*
X160477100Y-97061100D01*
G37*
D13*
X142062100Y-107221100D02*
X138760100Y-107221100D01*
X138760100Y-107221100D02*
G75*
G03X138379100Y-107602100I0J-381000D01*
G01*
X142443100Y-117000100D02*
G75*
G02X142062100Y-117381100I-381000J0D01*
G01*
X142062100Y-107221100D02*
G75*
G02X142443100Y-107602100I0J-381000D01*
G01*
X138379100Y-117000100D02*
G75*
G03X138760100Y-117381100I381000J0D01*
G01*
X138379100Y-107602100D02*
X138379100Y-108237100D01*
X138506100Y-108364100D02*
X138379100Y-108237100D01*
X142443100Y-107602100D02*
X142443100Y-108237100D01*
X142316100Y-108364100D02*
X142443100Y-108237100D01*
X138506100Y-116238100D02*
X138379100Y-116365100D01*
X138506100Y-116238100D02*
X138506100Y-108364100D01*
X142316100Y-116238100D02*
X142443100Y-116365100D01*
X142316100Y-116238100D02*
X142316100Y-108364100D01*
X138760100Y-117381100D02*
X142062100Y-117381100D01*
X138379100Y-117000100D02*
X138379100Y-116365100D01*
X142443100Y-117000100D02*
X142443100Y-116365100D01*
D10*
G36*
X140792100Y-117660500D02*
X140792100Y-117381100D01*
X140030100Y-117381100D01*
X140030100Y-117660500D01*
X140792100Y-117660500D01*
G37*
G36*
X140792100Y-107221100D02*
X140792100Y-106941700D01*
X140030100Y-106941700D01*
X140030100Y-107221100D01*
X140792100Y-107221100D01*
G37*
D16*
X132176100Y-89721100D02*
X136726100Y-89721100D01*
X136726100Y-89721100D02*
X136726100Y-99321100D01*
X136726100Y-99321100D02*
X132176100Y-99321100D01*
X132176100Y-99321100D02*
X132176100Y-97721100D01*
X132176100Y-97721100D02*
X132426100Y-97721100D01*
X132426100Y-97721100D02*
X132426100Y-91321100D01*
X132426100Y-91321100D02*
X132176100Y-91321100D01*
X132176100Y-91321100D02*
X132176100Y-89721100D01*
D13*
X136526100Y-99471100D02*
X136526100Y-100671100D01*
X136526100Y-100671100D02*
X135726100Y-100671100D01*
X135726100Y-100671100D02*
X135726100Y-100221100D01*
X135726100Y-100221100D02*
X135176100Y-100221100D01*
X135176100Y-100221100D02*
X135176100Y-100671100D01*
X135176100Y-100671100D02*
X134326100Y-100671100D01*
X134326100Y-100671100D02*
X134326100Y-99471100D01*
D16*
X125113600Y-119694850D02*
X125113600Y-115144850D01*
X125113600Y-115144850D02*
X134713600Y-115144850D01*
X134713600Y-115144850D02*
X134713600Y-119694850D01*
X134713600Y-119694850D02*
X133113600Y-119694850D01*
X133113600Y-119694850D02*
X133113600Y-119444850D01*
X133113600Y-119444850D02*
X126713600Y-119444850D01*
X126713600Y-119444850D02*
X126713600Y-119694850D01*
X126713600Y-119694850D02*
X125113600Y-119694850D01*
D13*
X134863600Y-115344850D02*
X136063600Y-115344850D01*
X136063600Y-115344850D02*
X136063600Y-116144850D01*
X136063600Y-116144850D02*
X135613600Y-116144850D01*
X135613600Y-116144850D02*
X135613600Y-116694850D01*
X135613600Y-116694850D02*
X136063600Y-116694850D01*
X136063600Y-116694850D02*
X136063600Y-117544850D01*
X136063600Y-117544850D02*
X134863600Y-117544850D01*
D16*
X173468600Y-95176100D02*
X173468600Y-99726100D01*
X173468600Y-99726100D02*
X163868600Y-99726100D01*
X163868600Y-99726100D02*
X163868600Y-95176100D01*
X163868600Y-95176100D02*
X165468600Y-95176100D01*
X165468600Y-95176100D02*
X165468600Y-95426100D01*
X165468600Y-95426100D02*
X171868600Y-95426100D01*
X171868600Y-95426100D02*
X171868600Y-95176100D01*
X171868600Y-95176100D02*
X173468600Y-95176100D01*
D13*
X163718600Y-99526100D02*
X162518600Y-99526100D01*
X162518600Y-99526100D02*
X162518600Y-98726100D01*
X162518600Y-98726100D02*
X162968600Y-98726100D01*
X162968600Y-98726100D02*
X162968600Y-98176100D01*
X162968600Y-98176100D02*
X162518600Y-98176100D01*
X162518600Y-98176100D02*
X162518600Y-97326100D01*
X162518600Y-97326100D02*
X163718600Y-97326100D01*
X138760100Y-102458600D02*
X142062100Y-102458600D01*
X142062100Y-102458600D02*
G75*
G03X142443100Y-102077600I0J381000D01*
G01*
X138379100Y-92679600D02*
G75*
G02X138760100Y-92298600I381000J0D01*
G01*
X138760100Y-102458600D02*
G75*
G02X138379100Y-102077600I0J381000D01*
G01*
X142443100Y-92679600D02*
G75*
G03X142062100Y-92298600I-381000J0D01*
G01*
X142443100Y-102077600D02*
X142443100Y-101442600D01*
X142316100Y-101315600D02*
X142443100Y-101442600D01*
X138379100Y-102077600D02*
X138379100Y-101442600D01*
X138506100Y-101315600D02*
X138379100Y-101442600D01*
X142316100Y-93441600D02*
X142443100Y-93314600D01*
X142316100Y-93441600D02*
X142316100Y-101315600D01*
X138506100Y-93441600D02*
X138379100Y-93314600D01*
X138506100Y-93441600D02*
X138506100Y-101315600D01*
X142062100Y-92298600D02*
X138760100Y-92298600D01*
X142443100Y-92679600D02*
X142443100Y-93314600D01*
X138379100Y-92679600D02*
X138379100Y-93314600D01*
D10*
G36*
X140030100Y-92019200D02*
X140030100Y-92298600D01*
X140792100Y-92298600D01*
X140792100Y-92019200D01*
X140030100Y-92019200D01*
G37*
G36*
X140030100Y-102458600D02*
X140030100Y-102738000D01*
X140792100Y-102738000D01*
X140792100Y-102458600D01*
X140030100Y-102458600D01*
G37*
D13*
X148666100Y-90711100D02*
X149936100Y-90711100D01*
X149936100Y-90711100D02*
X150571100Y-91346100D01*
X150571100Y-91346100D02*
X150571100Y-92616100D01*
X150571100Y-92616100D02*
X149936100Y-93251100D01*
X148031100Y-91346100D02*
X148031100Y-92616100D01*
X148666100Y-90711100D02*
X148031100Y-91346100D01*
X148031100Y-92616100D02*
X148666100Y-93251100D01*
X149936100Y-93251100D02*
X148666100Y-93251100D01*
X150571100Y-91346100D02*
X151206100Y-90711100D01*
X151206100Y-90711100D02*
X152476100Y-90711100D01*
X152476100Y-90711100D02*
X153111100Y-91346100D01*
X153111100Y-91346100D02*
X153111100Y-92616100D01*
X153111100Y-92616100D02*
X152476100Y-93251100D01*
X152476100Y-93251100D02*
X151206100Y-93251100D01*
X151206100Y-93251100D02*
X150571100Y-92616100D01*
D17*
D18*
X124655942Y-109009543D02*
X124598490Y-109066995D01*
X124426133Y-109124448D01*
X124311228Y-109124448D01*
X124138871Y-109066995D01*
X124023966Y-108952090D01*
X123966514Y-108837186D01*
X123909062Y-108607376D01*
X123909062Y-108435019D01*
X123966514Y-108205210D01*
X124023966Y-108090305D01*
X124138871Y-107975400D01*
X124311228Y-107917948D01*
X124426133Y-107917948D01*
X124598490Y-107975400D01*
X124655942Y-108032852D01*
X125804990Y-109124448D02*
X125115562Y-109124448D01*
X125460276Y-109124448D02*
X125460276Y-107917948D01*
X125345371Y-108090305D01*
X125230466Y-108205210D01*
X125115562Y-108262662D01*
D19*
X125681014Y-109531452D02*
X125738466Y-109474000D01*
X125853371Y-109416548D01*
X126140633Y-109416548D01*
X126255537Y-109474000D01*
X126312990Y-109531452D01*
X126370442Y-109646357D01*
X126370442Y-109761262D01*
X126312990Y-109933619D01*
X125623561Y-110623048D01*
X126370442Y-110623048D01*
X126887514Y-110508143D02*
X126944966Y-110565595D01*
X126887514Y-110623048D01*
X126830062Y-110565595D01*
X126887514Y-110508143D01*
X126887514Y-110623048D01*
X127404586Y-109531452D02*
X127462038Y-109474000D01*
X127576943Y-109416548D01*
X127864205Y-109416548D01*
X127979109Y-109474000D01*
X128036562Y-109531452D01*
X128094014Y-109646357D01*
X128094014Y-109761262D01*
X128036562Y-109933619D01*
X127347133Y-110623048D01*
X128094014Y-110623048D01*
X130047395Y-109818714D02*
X130047395Y-110623048D01*
X129530324Y-109818714D02*
X129530324Y-110450690D01*
X129587776Y-110565595D01*
X129702681Y-110623048D01*
X129875038Y-110623048D01*
X129989943Y-110565595D01*
X130047395Y-110508143D01*
X131024086Y-109991071D02*
X130621919Y-109991071D01*
X130621919Y-110623048D02*
X130621919Y-109416548D01*
X131196443Y-109416548D01*
D20*
D18*
X131082142Y-103294543D02*
X131024690Y-103351995D01*
X130852333Y-103409448D01*
X130737428Y-103409448D01*
X130565071Y-103351995D01*
X130450166Y-103237090D01*
X130392714Y-103122186D01*
X130335262Y-102892376D01*
X130335262Y-102720019D01*
X130392714Y-102490210D01*
X130450166Y-102375305D01*
X130565071Y-102260400D01*
X130737428Y-102202948D01*
X130852333Y-102202948D01*
X131024690Y-102260400D01*
X131082142Y-102317852D01*
X131484309Y-102202948D02*
X132231190Y-102202948D01*
X131829023Y-102662567D01*
X132001381Y-102662567D01*
X132116285Y-102720019D01*
X132173738Y-102777471D01*
X132231190Y-102892376D01*
X132231190Y-103179638D01*
X132173738Y-103294543D01*
X132116285Y-103351995D01*
X132001381Y-103409448D01*
X131656666Y-103409448D01*
X131541762Y-103351995D01*
X131484309Y-103294543D01*
D19*
D20*
X136408967Y-105543974D02*
X136408967Y-105006220D01*
X137350037Y-105275097D02*
X136408967Y-105275097D01*
X136408967Y-104826968D02*
X136408967Y-104289214D01*
X137350037Y-104558091D02*
X136408967Y-104558091D01*
D18*
X136879290Y-110922243D02*
X136821838Y-110979695D01*
X136649481Y-111037148D01*
X136534576Y-111037148D01*
X136362219Y-110979695D01*
X136247314Y-110864790D01*
X136189862Y-110749886D01*
X136132410Y-110520076D01*
X136132410Y-110347719D01*
X136189862Y-110117910D01*
X136247314Y-110003005D01*
X136362219Y-109888100D01*
X136534576Y-109830648D01*
X136649481Y-109830648D01*
X136821838Y-109888100D01*
X136879290Y-109945552D01*
X137338910Y-109945552D02*
X137396362Y-109888100D01*
X137511267Y-109830648D01*
X137798529Y-109830648D01*
X137913433Y-109888100D01*
X137970886Y-109945552D01*
X138028338Y-110060457D01*
X138028338Y-110175362D01*
X137970886Y-110347719D01*
X137281457Y-111037148D01*
X138028338Y-111037148D01*
D19*
D18*
X171518942Y-116261243D02*
X171461490Y-116318695D01*
X171289133Y-116376148D01*
X171174228Y-116376148D01*
X171001871Y-116318695D01*
X170886966Y-116203790D01*
X170829514Y-116088886D01*
X170772062Y-115859076D01*
X170772062Y-115686719D01*
X170829514Y-115456910D01*
X170886966Y-115342005D01*
X171001871Y-115227100D01*
X171174228Y-115169648D01*
X171289133Y-115169648D01*
X171461490Y-115227100D01*
X171518942Y-115284552D01*
X172553085Y-115571814D02*
X172553085Y-116376148D01*
X172265823Y-115112195D02*
X171978562Y-115973981D01*
X172725442Y-115973981D01*
X170941598Y-108683112D02*
X170941598Y-109372540D01*
X170941598Y-109027826D02*
X169735098Y-109027826D01*
X169907455Y-109142731D01*
X170022360Y-109257636D01*
X170079812Y-109372540D01*
X169735098Y-107936231D02*
X169735098Y-107821326D01*
X169792550Y-107706421D01*
X169850002Y-107648969D01*
X169964907Y-107591516D01*
X170194717Y-107534064D01*
X170481979Y-107534064D01*
X170711788Y-107591516D01*
X170826693Y-107648969D01*
X170884145Y-107706421D01*
X170941598Y-107821326D01*
X170941598Y-107936231D01*
X170884145Y-108051135D01*
X170826693Y-108108588D01*
X170711788Y-108166040D01*
X170481979Y-108223492D01*
X170194717Y-108223492D01*
X169964907Y-108166040D01*
X169850002Y-108108588D01*
X169792550Y-108051135D01*
X169735098Y-107936231D01*
X170137264Y-107016992D02*
X170941598Y-107016992D01*
X170252169Y-107016992D02*
X170194717Y-106959540D01*
X170137264Y-106844635D01*
X170137264Y-106672278D01*
X170194717Y-106557373D01*
X170309621Y-106499921D01*
X170941598Y-106499921D01*
X170309621Y-105523230D02*
X170309621Y-105925397D01*
X170941598Y-105925397D02*
X169735098Y-105925397D01*
X169735098Y-105350873D01*
D19*
X125979162Y-90353848D02*
X125979162Y-89147348D01*
X126553686Y-90353848D02*
X126553686Y-89147348D01*
X127243114Y-90353848D01*
X127243114Y-89147348D01*
X127817638Y-90353848D02*
X127817638Y-89147348D01*
X128277257Y-89147348D01*
X128392162Y-89204800D01*
X128449614Y-89262252D01*
X128507066Y-89377157D01*
X128507066Y-89549514D01*
X128449614Y-89664419D01*
X128392162Y-89721871D01*
X128277257Y-89779324D01*
X127817638Y-89779324D01*
X129024138Y-89147348D02*
X129024138Y-90124038D01*
X129081590Y-90238943D01*
X129139043Y-90296395D01*
X129253947Y-90353848D01*
X129483757Y-90353848D01*
X129598662Y-90296395D01*
X129656114Y-90238943D01*
X129713566Y-90124038D01*
X129713566Y-89147348D01*
X130115733Y-89147348D02*
X130805161Y-89147348D01*
X130460447Y-90353848D02*
X130460447Y-89147348D01*
X131839304Y-90353848D02*
X131149876Y-90353848D01*
X131494590Y-90353848D02*
X131494590Y-89147348D01*
X131379685Y-89319705D01*
X131264780Y-89434610D01*
X131149876Y-89492062D01*
D11*
D18*
X164266114Y-119627348D02*
X164476876Y-119627348D01*
X164582257Y-119684800D01*
X164687638Y-119799705D01*
X164740329Y-120029514D01*
X164740329Y-120431681D01*
X164687638Y-120661490D01*
X164582257Y-120776395D01*
X164476876Y-120833848D01*
X164266114Y-120833848D01*
X164160733Y-120776395D01*
X164055352Y-120661490D01*
X164002662Y-120431681D01*
X164002662Y-120029514D01*
X164055352Y-119799705D01*
X164160733Y-119684800D01*
X164266114Y-119627348D01*
X165214542Y-119627348D02*
X165214542Y-120604038D01*
X165267233Y-120718943D01*
X165319923Y-120776395D01*
X165425304Y-120833848D01*
X165636066Y-120833848D01*
X165741447Y-120776395D01*
X165794138Y-120718943D01*
X165846828Y-120604038D01*
X165846828Y-119627348D01*
X166215661Y-119627348D02*
X166847947Y-119627348D01*
X166531804Y-120833848D02*
X166531804Y-119627348D01*
X167216780Y-120833848D02*
X167216780Y-119627348D01*
X167638304Y-119627348D01*
X167743685Y-119684800D01*
X167796376Y-119742252D01*
X167849066Y-119857157D01*
X167849066Y-120029514D01*
X167796376Y-120144419D01*
X167743685Y-120201871D01*
X167638304Y-120259324D01*
X167216780Y-120259324D01*
X168323280Y-119627348D02*
X168323280Y-120604038D01*
X168375971Y-120718943D01*
X168428661Y-120776395D01*
X168534042Y-120833848D01*
X168744804Y-120833848D01*
X168850185Y-120776395D01*
X168902876Y-120718943D01*
X168955566Y-120604038D01*
X168955566Y-119627348D01*
X169324399Y-119627348D02*
X169956685Y-119627348D01*
X169640542Y-120833848D02*
X169640542Y-119627348D01*
X170905114Y-120833848D02*
X170272828Y-120833848D01*
X170588971Y-120833848D02*
X170588971Y-119627348D01*
X170483590Y-119799705D01*
X170378209Y-119914610D01*
X170272828Y-119972062D01*
D21*
D18*
X151116695Y-117049852D02*
X151001790Y-116992400D01*
X150886886Y-116877495D01*
X150714529Y-116705138D01*
X150599624Y-116647686D01*
X150484719Y-116647686D01*
X150542171Y-116934948D02*
X150427267Y-116877495D01*
X150312362Y-116762590D01*
X150254910Y-116532781D01*
X150254910Y-116130614D01*
X150312362Y-115900805D01*
X150427267Y-115785900D01*
X150542171Y-115728448D01*
X150771981Y-115728448D01*
X150886886Y-115785900D01*
X151001790Y-115900805D01*
X151059243Y-116130614D01*
X151059243Y-116532781D01*
X151001790Y-116762590D01*
X150886886Y-116877495D01*
X150771981Y-116934948D01*
X150542171Y-116934948D01*
X152208290Y-116934948D02*
X151518862Y-116934948D01*
X151863576Y-116934948D02*
X151863576Y-115728448D01*
X151748671Y-115900805D01*
X151633766Y-116015710D01*
X151518862Y-116073162D01*
X143950468Y-111088552D02*
X144007920Y-111031100D01*
X144122825Y-110973648D01*
X144410087Y-110973648D01*
X144524991Y-111031100D01*
X144582444Y-111088552D01*
X144639896Y-111203457D01*
X144639896Y-111318362D01*
X144582444Y-111490719D01*
X143893015Y-112180148D01*
X144639896Y-112180148D01*
X145156968Y-112180148D02*
X145156968Y-110973648D01*
X145846396Y-112180148D01*
X145846396Y-110973648D01*
X146306015Y-110973648D02*
X147052896Y-110973648D01*
X146650729Y-111433267D01*
X146823087Y-111433267D01*
X146937991Y-111490719D01*
X146995444Y-111548171D01*
X147052896Y-111663076D01*
X147052896Y-111950338D01*
X146995444Y-112065243D01*
X146937991Y-112122695D01*
X146823087Y-112180148D01*
X146478372Y-112180148D01*
X146363468Y-112122695D01*
X146306015Y-112065243D01*
X148087039Y-111375814D02*
X148087039Y-112180148D01*
X147799777Y-110916195D02*
X147512516Y-111777981D01*
X148259396Y-111777981D01*
X149236087Y-110973648D02*
X149006278Y-110973648D01*
X148891373Y-111031100D01*
X148833921Y-111088552D01*
X148719016Y-111260910D01*
X148661564Y-111490719D01*
X148661564Y-111950338D01*
X148719016Y-112065243D01*
X148776468Y-112122695D01*
X148891373Y-112180148D01*
X149121183Y-112180148D01*
X149236087Y-112122695D01*
X149293540Y-112065243D01*
X149350992Y-111950338D01*
X149350992Y-111663076D01*
X149293540Y-111548171D01*
X149236087Y-111490719D01*
X149121183Y-111433267D01*
X148891373Y-111433267D01*
X148776468Y-111490719D01*
X148719016Y-111548171D01*
X148661564Y-111663076D01*
X149753159Y-110973648D02*
X150557492Y-110973648D01*
X150040421Y-112180148D01*
D19*
X154329695Y-105627552D02*
X154214790Y-105570100D01*
X154099886Y-105455195D01*
X153927529Y-105282838D01*
X153812624Y-105225386D01*
X153697719Y-105225386D01*
X153755171Y-105512648D02*
X153640267Y-105455195D01*
X153525362Y-105340290D01*
X153467910Y-105110481D01*
X153467910Y-104708314D01*
X153525362Y-104478505D01*
X153640267Y-104363600D01*
X153755171Y-104306148D01*
X153984981Y-104306148D01*
X154099886Y-104363600D01*
X154214790Y-104478505D01*
X154272243Y-104708314D01*
X154272243Y-105110481D01*
X154214790Y-105340290D01*
X154099886Y-105455195D01*
X153984981Y-105512648D01*
X153755171Y-105512648D01*
X154731862Y-104421052D02*
X154789314Y-104363600D01*
X154904219Y-104306148D01*
X155191481Y-104306148D01*
X155306385Y-104363600D01*
X155363838Y-104421052D01*
X155421290Y-104535957D01*
X155421290Y-104650862D01*
X155363838Y-104823219D01*
X154674409Y-105512648D01*
X155421290Y-105512648D01*
X149506718Y-98706052D02*
X149564170Y-98648600D01*
X149679075Y-98591148D01*
X149966337Y-98591148D01*
X150081241Y-98648600D01*
X150138694Y-98706052D01*
X150196146Y-98820957D01*
X150196146Y-98935862D01*
X150138694Y-99108219D01*
X149449265Y-99797648D01*
X150196146Y-99797648D01*
X150713218Y-99797648D02*
X150713218Y-98591148D01*
X151402646Y-99797648D01*
X151402646Y-98591148D01*
X151862265Y-98591148D02*
X152609146Y-98591148D01*
X152206979Y-99050767D01*
X152379337Y-99050767D01*
X152494241Y-99108219D01*
X152551694Y-99165671D01*
X152609146Y-99280576D01*
X152609146Y-99567838D01*
X152551694Y-99682743D01*
X152494241Y-99740195D01*
X152379337Y-99797648D01*
X152034622Y-99797648D01*
X151919718Y-99740195D01*
X151862265Y-99682743D01*
X153643289Y-98993314D02*
X153643289Y-99797648D01*
X153356027Y-98533695D02*
X153068766Y-99395481D01*
X153815646Y-99395481D01*
X154792337Y-98591148D02*
X154562528Y-98591148D01*
X154447623Y-98648600D01*
X154390171Y-98706052D01*
X154275266Y-98878410D01*
X154217814Y-99108219D01*
X154217814Y-99567838D01*
X154275266Y-99682743D01*
X154332718Y-99740195D01*
X154447623Y-99797648D01*
X154677433Y-99797648D01*
X154792337Y-99740195D01*
X154849790Y-99682743D01*
X154907242Y-99567838D01*
X154907242Y-99280576D01*
X154849790Y-99165671D01*
X154792337Y-99108219D01*
X154677433Y-99050767D01*
X154447623Y-99050767D01*
X154332718Y-99108219D01*
X154275266Y-99165671D01*
X154217814Y-99280576D01*
X155309409Y-98591148D02*
X156113742Y-98591148D01*
X155596671Y-99797648D01*
X125240648Y-105133160D02*
X124666124Y-105535326D01*
X125240648Y-105822588D02*
X124034148Y-105822588D01*
X124034148Y-105362969D01*
X124091600Y-105248064D01*
X124149052Y-105190612D01*
X124263957Y-105133160D01*
X124436314Y-105133160D01*
X124551219Y-105190612D01*
X124608671Y-105248064D01*
X124666124Y-105362969D01*
X124666124Y-105822588D01*
X125240648Y-103984112D02*
X125240648Y-104673540D01*
X125240648Y-104328826D02*
X124034148Y-104328826D01*
X124206505Y-104443731D01*
X124321410Y-104558636D01*
X124378862Y-104673540D01*
X127197052Y-104381440D02*
X127139600Y-104323988D01*
X127082148Y-104209083D01*
X127082148Y-103921821D01*
X127139600Y-103806917D01*
X127197052Y-103749464D01*
X127311957Y-103692012D01*
X127426862Y-103692012D01*
X127599219Y-103749464D01*
X128288648Y-104438893D01*
X128288648Y-103692012D01*
X128173743Y-103174940D02*
X128231195Y-103117488D01*
X128288648Y-103174940D01*
X128231195Y-103232392D01*
X128173743Y-103174940D01*
X128288648Y-103174940D01*
X127197052Y-102657868D02*
X127139600Y-102600416D01*
X127082148Y-102485511D01*
X127082148Y-102198249D01*
X127139600Y-102083345D01*
X127197052Y-102025892D01*
X127311957Y-101968440D01*
X127426862Y-101968440D01*
X127599219Y-102025892D01*
X128288648Y-102715321D01*
X128288648Y-101968440D01*
X128288648Y-101451368D02*
X127082148Y-101451368D01*
X127943933Y-101049201D01*
X127082148Y-100647035D01*
X128288648Y-100647035D01*
D11*
X162597494Y-116261848D02*
X162195328Y-115687324D01*
X161908066Y-116261848D02*
X161908066Y-115055348D01*
X162367685Y-115055348D01*
X162482590Y-115112800D01*
X162540042Y-115170252D01*
X162597494Y-115285157D01*
X162597494Y-115457514D01*
X162540042Y-115572419D01*
X162482590Y-115629871D01*
X162367685Y-115687324D01*
X161908066Y-115687324D01*
X163746542Y-116261848D02*
X163057114Y-116261848D01*
X163401828Y-116261848D02*
X163401828Y-115055348D01*
X163286923Y-115227705D01*
X163172018Y-115342610D01*
X163057114Y-115400062D01*
X164493423Y-115055348D02*
X164608328Y-115055348D01*
X164723233Y-115112800D01*
X164780685Y-115170252D01*
X164838138Y-115285157D01*
X164895590Y-115514967D01*
X164895590Y-115802229D01*
X164838138Y-116032038D01*
X164780685Y-116146943D01*
X164723233Y-116204395D01*
X164608328Y-116261848D01*
X164493423Y-116261848D01*
X164378519Y-116204395D01*
X164321066Y-116146943D01*
X164263614Y-116032038D01*
X164206162Y-115802229D01*
X164206162Y-115514967D01*
X164263614Y-115285157D01*
X164321066Y-115170252D01*
X164378519Y-115112800D01*
X164493423Y-115055348D01*
X157873326Y-112447302D02*
X157930778Y-112389850D01*
X158045683Y-112332398D01*
X158332945Y-112332398D01*
X158447849Y-112389850D01*
X158505302Y-112447302D01*
X158562754Y-112562207D01*
X158562754Y-112677112D01*
X158505302Y-112849469D01*
X157815873Y-113538898D01*
X158562754Y-113538898D01*
X159654350Y-112332398D02*
X159079826Y-112332398D01*
X159022374Y-112906921D01*
X159079826Y-112849469D01*
X159194731Y-112792017D01*
X159481993Y-112792017D01*
X159596897Y-112849469D01*
X159654350Y-112906921D01*
X159711802Y-113021826D01*
X159711802Y-113309088D01*
X159654350Y-113423993D01*
X159596897Y-113481445D01*
X159481993Y-113538898D01*
X159194731Y-113538898D01*
X159079826Y-113481445D01*
X159022374Y-113423993D01*
X160458683Y-112332398D02*
X160573588Y-112332398D01*
X160688493Y-112389850D01*
X160745945Y-112447302D01*
X160803398Y-112562207D01*
X160860850Y-112792017D01*
X160860850Y-113079279D01*
X160803398Y-113309088D01*
X160745945Y-113423993D01*
X160688493Y-113481445D01*
X160573588Y-113538898D01*
X160458683Y-113538898D01*
X160343779Y-113481445D01*
X160286326Y-113423993D01*
X160228874Y-113309088D01*
X160171422Y-113079279D01*
X160171422Y-112792017D01*
X160228874Y-112562207D01*
X160286326Y-112447302D01*
X160343779Y-112389850D01*
X160458683Y-112332398D01*
X161377922Y-113538898D02*
X161377922Y-112332398D01*
X161492827Y-113079279D02*
X161837541Y-113538898D01*
X161837541Y-112734564D02*
X161377922Y-113194183D01*
D18*
X142944548Y-104128510D02*
X142370024Y-104530676D01*
X142944548Y-104817938D02*
X141738048Y-104817938D01*
X141738048Y-104358319D01*
X141795500Y-104243414D01*
X141852952Y-104185962D01*
X141967857Y-104128510D01*
X142140214Y-104128510D01*
X142255119Y-104185962D01*
X142312571Y-104243414D01*
X142370024Y-104358319D01*
X142370024Y-104817938D01*
X142140214Y-103094367D02*
X142944548Y-103094367D01*
X141680595Y-103381629D02*
X142542381Y-103668890D01*
X142542381Y-102922010D01*
X145020898Y-102375143D02*
X145020898Y-101628262D01*
X145480517Y-102030429D01*
X145480517Y-101858071D01*
X145537969Y-101743167D01*
X145595421Y-101685714D01*
X145710326Y-101628262D01*
X145997588Y-101628262D01*
X146112493Y-101685714D01*
X146169945Y-101743167D01*
X146227398Y-101858071D01*
X146227398Y-102202786D01*
X146169945Y-102317690D01*
X146112493Y-102375143D01*
X145020898Y-101226095D02*
X145020898Y-100479214D01*
X145480517Y-100881381D01*
X145480517Y-100709023D01*
X145537969Y-100594119D01*
X145595421Y-100536666D01*
X145710326Y-100479214D01*
X145997588Y-100479214D01*
X146112493Y-100536666D01*
X146169945Y-100594119D01*
X146227398Y-100709023D01*
X146227398Y-101053738D01*
X146169945Y-101168642D01*
X146112493Y-101226095D01*
X146227398Y-99962142D02*
X145020898Y-99962142D01*
X145767779Y-99847237D02*
X146227398Y-99502523D01*
X145423064Y-99502523D02*
X145882683Y-99962142D01*
X163676390Y-91890548D02*
X163274224Y-91316024D01*
X162986962Y-91890548D02*
X162986962Y-90684048D01*
X163446581Y-90684048D01*
X163561486Y-90741500D01*
X163618938Y-90798952D01*
X163676390Y-90913857D01*
X163676390Y-91086214D01*
X163618938Y-91201119D01*
X163561486Y-91258571D01*
X163446581Y-91316024D01*
X162986962Y-91316024D01*
X164710533Y-90684048D02*
X164480724Y-90684048D01*
X164365819Y-90741500D01*
X164308367Y-90798952D01*
X164193462Y-90971310D01*
X164136010Y-91201119D01*
X164136010Y-91660738D01*
X164193462Y-91775643D01*
X164250914Y-91833095D01*
X164365819Y-91890548D01*
X164595629Y-91890548D01*
X164710533Y-91833095D01*
X164767986Y-91775643D01*
X164825438Y-91660738D01*
X164825438Y-91373476D01*
X164767986Y-91258571D01*
X164710533Y-91201119D01*
X164595629Y-91143667D01*
X164365819Y-91143667D01*
X164250914Y-91201119D01*
X164193462Y-91258571D01*
X164136010Y-91373476D01*
X158430283Y-90717148D02*
X158200474Y-90717148D01*
X158085569Y-90774600D01*
X158028117Y-90832052D01*
X157913212Y-91004410D01*
X157855760Y-91234219D01*
X157855760Y-91693838D01*
X157913212Y-91808743D01*
X157970664Y-91866195D01*
X158085569Y-91923648D01*
X158315379Y-91923648D01*
X158430283Y-91866195D01*
X158487736Y-91808743D01*
X158545188Y-91693838D01*
X158545188Y-91406576D01*
X158487736Y-91291671D01*
X158430283Y-91234219D01*
X158315379Y-91176767D01*
X158085569Y-91176767D01*
X157970664Y-91234219D01*
X157913212Y-91291671D01*
X157855760Y-91406576D01*
X159234617Y-91234219D02*
X159119712Y-91176767D01*
X159062260Y-91119314D01*
X159004808Y-91004410D01*
X159004808Y-90946957D01*
X159062260Y-90832052D01*
X159119712Y-90774600D01*
X159234617Y-90717148D01*
X159464427Y-90717148D01*
X159579331Y-90774600D01*
X159636784Y-90832052D01*
X159694236Y-90946957D01*
X159694236Y-91004410D01*
X159636784Y-91119314D01*
X159579331Y-91176767D01*
X159464427Y-91234219D01*
X159234617Y-91234219D01*
X159119712Y-91291671D01*
X159062260Y-91349124D01*
X159004808Y-91464029D01*
X159004808Y-91693838D01*
X159062260Y-91808743D01*
X159119712Y-91866195D01*
X159234617Y-91923648D01*
X159464427Y-91923648D01*
X159579331Y-91866195D01*
X159636784Y-91808743D01*
X159694236Y-91693838D01*
X159694236Y-91464029D01*
X159636784Y-91349124D01*
X159579331Y-91291671D01*
X159464427Y-91234219D01*
X160441117Y-90717148D02*
X160556022Y-90717148D01*
X160670927Y-90774600D01*
X160728379Y-90832052D01*
X160785832Y-90946957D01*
X160843284Y-91176767D01*
X160843284Y-91464029D01*
X160785832Y-91693838D01*
X160728379Y-91808743D01*
X160670927Y-91866195D01*
X160556022Y-91923648D01*
X160441117Y-91923648D01*
X160326213Y-91866195D01*
X160268760Y-91808743D01*
X160211308Y-91693838D01*
X160153856Y-91464029D01*
X160153856Y-91176767D01*
X160211308Y-90946957D01*
X160268760Y-90832052D01*
X160326213Y-90774600D01*
X160441117Y-90717148D01*
D19*
X163701790Y-107905248D02*
X163299624Y-107330724D01*
X163012362Y-107905248D02*
X163012362Y-106698748D01*
X163471981Y-106698748D01*
X163586886Y-106756200D01*
X163644338Y-106813652D01*
X163701790Y-106928557D01*
X163701790Y-107100914D01*
X163644338Y-107215819D01*
X163586886Y-107273271D01*
X163471981Y-107330724D01*
X163012362Y-107330724D01*
X164391219Y-107215819D02*
X164276314Y-107158367D01*
X164218862Y-107100914D01*
X164161410Y-106986010D01*
X164161410Y-106928557D01*
X164218862Y-106813652D01*
X164276314Y-106756200D01*
X164391219Y-106698748D01*
X164621029Y-106698748D01*
X164735933Y-106756200D01*
X164793386Y-106813652D01*
X164850838Y-106928557D01*
X164850838Y-106986010D01*
X164793386Y-107100914D01*
X164735933Y-107158367D01*
X164621029Y-107215819D01*
X164391219Y-107215819D01*
X164276314Y-107273271D01*
X164218862Y-107330724D01*
X164161410Y-107445629D01*
X164161410Y-107675438D01*
X164218862Y-107790343D01*
X164276314Y-107847795D01*
X164391219Y-107905248D01*
X164621029Y-107905248D01*
X164735933Y-107847795D01*
X164793386Y-107790343D01*
X164850838Y-107675438D01*
X164850838Y-107445629D01*
X164793386Y-107330724D01*
X164735933Y-107273271D01*
X164621029Y-107215819D01*
X159984219Y-105262881D02*
X159926767Y-105377786D01*
X159869314Y-105435238D01*
X159754410Y-105492690D01*
X159696957Y-105492690D01*
X159582052Y-105435238D01*
X159524600Y-105377786D01*
X159467148Y-105262881D01*
X159467148Y-105033071D01*
X159524600Y-104918167D01*
X159582052Y-104860714D01*
X159696957Y-104803262D01*
X159754410Y-104803262D01*
X159869314Y-104860714D01*
X159926767Y-104918167D01*
X159984219Y-105033071D01*
X159984219Y-105262881D01*
X160041671Y-105377786D01*
X160099124Y-105435238D01*
X160214029Y-105492690D01*
X160443838Y-105492690D01*
X160558743Y-105435238D01*
X160616195Y-105377786D01*
X160673648Y-105262881D01*
X160673648Y-105033071D01*
X160616195Y-104918167D01*
X160558743Y-104860714D01*
X160443838Y-104803262D01*
X160214029Y-104803262D01*
X160099124Y-104860714D01*
X160041671Y-104918167D01*
X159984219Y-105033071D01*
X160558743Y-104286190D02*
X160616195Y-104228738D01*
X160673648Y-104286190D01*
X160616195Y-104343642D01*
X160558743Y-104286190D01*
X160673648Y-104286190D01*
X159582052Y-103769118D02*
X159524600Y-103711666D01*
X159467148Y-103596761D01*
X159467148Y-103309499D01*
X159524600Y-103194595D01*
X159582052Y-103137142D01*
X159696957Y-103079690D01*
X159811862Y-103079690D01*
X159984219Y-103137142D01*
X160673648Y-103826571D01*
X160673648Y-103079690D01*
X160673648Y-102562618D02*
X159467148Y-102562618D01*
X160214029Y-102447713D02*
X160673648Y-102102999D01*
X159869314Y-102102999D02*
X160328933Y-102562618D01*
X137940648Y-116404410D02*
X137366124Y-116806576D01*
X137940648Y-117093838D02*
X136734148Y-117093838D01*
X136734148Y-116634219D01*
X136791600Y-116519314D01*
X136849052Y-116461862D01*
X136963957Y-116404410D01*
X137136314Y-116404410D01*
X137251219Y-116461862D01*
X137308671Y-116519314D01*
X137366124Y-116634219D01*
X137366124Y-117093838D01*
X136734148Y-115312814D02*
X136734148Y-115887338D01*
X137308671Y-115944790D01*
X137251219Y-115887338D01*
X137193767Y-115772433D01*
X137193767Y-115485171D01*
X137251219Y-115370267D01*
X137308671Y-115312814D01*
X137423576Y-115255362D01*
X137710838Y-115255362D01*
X137825743Y-115312814D01*
X137883195Y-115370267D01*
X137940648Y-115485171D01*
X137940648Y-115772433D01*
X137883195Y-115887338D01*
X137825743Y-115944790D01*
X140988648Y-114963262D02*
X140988648Y-115652690D01*
X140988648Y-115307976D02*
X139782148Y-115307976D01*
X139954505Y-115422881D01*
X140069410Y-115537786D01*
X140126862Y-115652690D01*
X139782148Y-114216381D02*
X139782148Y-114101476D01*
X139839600Y-113986571D01*
X139897052Y-113929119D01*
X140011957Y-113871666D01*
X140241767Y-113814214D01*
X140529029Y-113814214D01*
X140758838Y-113871666D01*
X140873743Y-113929119D01*
X140931195Y-113986571D01*
X140988648Y-114101476D01*
X140988648Y-114216381D01*
X140931195Y-114331285D01*
X140873743Y-114388738D01*
X140758838Y-114446190D01*
X140529029Y-114503642D01*
X140241767Y-114503642D01*
X140011957Y-114446190D01*
X139897052Y-114388738D01*
X139839600Y-114331285D01*
X139782148Y-114216381D01*
X139782148Y-113067333D02*
X139782148Y-112952428D01*
X139839600Y-112837523D01*
X139897052Y-112780071D01*
X140011957Y-112722618D01*
X140241767Y-112665166D01*
X140529029Y-112665166D01*
X140758838Y-112722618D01*
X140873743Y-112780071D01*
X140931195Y-112837523D01*
X140988648Y-112952428D01*
X140988648Y-113067333D01*
X140931195Y-113182237D01*
X140873743Y-113239690D01*
X140758838Y-113297142D01*
X140529029Y-113354594D01*
X140241767Y-113354594D01*
X140011957Y-113297142D01*
X139897052Y-113239690D01*
X139839600Y-113182237D01*
X139782148Y-113067333D01*
X140988648Y-112148094D02*
X139782148Y-112148094D01*
X140529029Y-112033189D02*
X140988648Y-111688475D01*
X140184314Y-111688475D02*
X140643933Y-112148094D01*
D11*
X138275148Y-90949958D02*
X137700624Y-91352124D01*
X138275148Y-91639386D02*
X137068648Y-91639386D01*
X137068648Y-91179767D01*
X137126100Y-91064862D01*
X137183552Y-91007410D01*
X137298457Y-90949958D01*
X137470814Y-90949958D01*
X137585719Y-91007410D01*
X137643171Y-91064862D01*
X137700624Y-91179767D01*
X137700624Y-91639386D01*
X137183552Y-90490338D02*
X137126100Y-90432886D01*
X137068648Y-90317981D01*
X137068648Y-90030719D01*
X137126100Y-89915815D01*
X137183552Y-89858362D01*
X137298457Y-89800910D01*
X137413362Y-89800910D01*
X137585719Y-89858362D01*
X138275148Y-90547791D01*
X138275148Y-89800910D01*
X135775148Y-94855506D02*
X135775148Y-95544934D01*
X135775148Y-95200220D02*
X134568648Y-95200220D01*
X134741005Y-95315125D01*
X134855910Y-95430030D01*
X134913362Y-95544934D01*
X134568648Y-94108625D02*
X134568648Y-93993720D01*
X134626100Y-93878815D01*
X134683552Y-93821363D01*
X134798457Y-93763910D01*
X135028267Y-93706458D01*
X135315529Y-93706458D01*
X135545338Y-93763910D01*
X135660243Y-93821363D01*
X135717695Y-93878815D01*
X135775148Y-93993720D01*
X135775148Y-94108625D01*
X135717695Y-94223529D01*
X135660243Y-94280982D01*
X135545338Y-94338434D01*
X135315529Y-94395886D01*
X135028267Y-94395886D01*
X134798457Y-94338434D01*
X134683552Y-94280982D01*
X134626100Y-94223529D01*
X134568648Y-94108625D01*
X134568648Y-92959577D02*
X134568648Y-92844672D01*
X134626100Y-92729767D01*
X134683552Y-92672315D01*
X134798457Y-92614862D01*
X135028267Y-92557410D01*
X135315529Y-92557410D01*
X135545338Y-92614862D01*
X135660243Y-92672315D01*
X135717695Y-92729767D01*
X135775148Y-92844672D01*
X135775148Y-92959577D01*
X135717695Y-93074481D01*
X135660243Y-93131934D01*
X135545338Y-93189386D01*
X135315529Y-93246838D01*
X135028267Y-93246838D01*
X134798457Y-93189386D01*
X134683552Y-93131934D01*
X134626100Y-93074481D01*
X134568648Y-92959577D01*
X135775148Y-92040338D02*
X134568648Y-92040338D01*
X135775148Y-91350910D02*
X135085719Y-91867981D01*
X134568648Y-91350910D02*
X135258076Y-92040338D01*
D21*
X135964990Y-120643348D02*
X135562824Y-120068824D01*
X135275562Y-120643348D02*
X135275562Y-119436848D01*
X135735181Y-119436848D01*
X135850086Y-119494300D01*
X135907538Y-119551752D01*
X135964990Y-119666657D01*
X135964990Y-119839014D01*
X135907538Y-119953919D01*
X135850086Y-120011371D01*
X135735181Y-120068824D01*
X135275562Y-120068824D01*
X136367157Y-119436848D02*
X137114038Y-119436848D01*
X136711871Y-119896467D01*
X136884229Y-119896467D01*
X136999133Y-119953919D01*
X137056586Y-120011371D01*
X137114038Y-120126276D01*
X137114038Y-120413538D01*
X137056586Y-120528443D01*
X136999133Y-120585895D01*
X136884229Y-120643348D01*
X136539514Y-120643348D01*
X136424610Y-120585895D01*
X136367157Y-120528443D01*
X126743410Y-116095802D02*
X126800862Y-116038350D01*
X126915767Y-115980898D01*
X127203029Y-115980898D01*
X127317933Y-116038350D01*
X127375386Y-116095802D01*
X127432838Y-116210707D01*
X127432838Y-116325612D01*
X127375386Y-116497969D01*
X126685957Y-117187398D01*
X127432838Y-117187398D01*
X128524434Y-115980898D02*
X127949910Y-115980898D01*
X127892458Y-116555421D01*
X127949910Y-116497969D01*
X128064815Y-116440517D01*
X128352077Y-116440517D01*
X128466981Y-116497969D01*
X128524434Y-116555421D01*
X128581886Y-116670326D01*
X128581886Y-116957588D01*
X128524434Y-117072493D01*
X128466981Y-117129945D01*
X128352077Y-117187398D01*
X128064815Y-117187398D01*
X127949910Y-117129945D01*
X127892458Y-117072493D01*
X129328767Y-115980898D02*
X129443672Y-115980898D01*
X129558577Y-116038350D01*
X129616029Y-116095802D01*
X129673482Y-116210707D01*
X129730934Y-116440517D01*
X129730934Y-116727779D01*
X129673482Y-116957588D01*
X129616029Y-117072493D01*
X129558577Y-117129945D01*
X129443672Y-117187398D01*
X129328767Y-117187398D01*
X129213863Y-117129945D01*
X129156410Y-117072493D01*
X129098958Y-116957588D01*
X129041506Y-116727779D01*
X129041506Y-116440517D01*
X129098958Y-116210707D01*
X129156410Y-116095802D01*
X129213863Y-116038350D01*
X129328767Y-115980898D01*
X130248006Y-117187398D02*
X130248006Y-115980898D01*
X130362911Y-116727779D02*
X130707625Y-117187398D01*
X130707625Y-116383064D02*
X130248006Y-116842683D01*
D11*
X172239742Y-101275148D02*
X171837576Y-100700624D01*
X171550314Y-101275148D02*
X171550314Y-100068648D01*
X172009933Y-100068648D01*
X172124838Y-100126100D01*
X172182290Y-100183552D01*
X172239742Y-100298457D01*
X172239742Y-100470814D01*
X172182290Y-100585719D01*
X172124838Y-100643171D01*
X172009933Y-100700624D01*
X171550314Y-100700624D01*
X172641909Y-100068648D02*
X173446242Y-100068648D01*
X172929171Y-101275148D01*
X169713052Y-98775148D02*
X169023624Y-98775148D01*
X169368338Y-98775148D02*
X169368338Y-97568648D01*
X169253433Y-97741005D01*
X169138528Y-97855910D01*
X169023624Y-97913362D01*
X170459933Y-97568648D02*
X170574838Y-97568648D01*
X170689743Y-97626100D01*
X170747195Y-97683552D01*
X170804648Y-97798457D01*
X170862100Y-98028267D01*
X170862100Y-98315529D01*
X170804648Y-98545338D01*
X170747195Y-98660243D01*
X170689743Y-98717695D01*
X170574838Y-98775148D01*
X170459933Y-98775148D01*
X170345029Y-98717695D01*
X170287576Y-98660243D01*
X170230124Y-98545338D01*
X170172672Y-98315529D01*
X170172672Y-98028267D01*
X170230124Y-97798457D01*
X170287576Y-97683552D01*
X170345029Y-97626100D01*
X170459933Y-97568648D01*
X171379172Y-98775148D02*
X171379172Y-97568648D01*
X171494077Y-98315529D02*
X171838791Y-98775148D01*
X171838791Y-97970814D02*
X171379172Y-98430433D01*
D18*
X149180248Y-104921958D02*
X148605724Y-105324124D01*
X149180248Y-105611386D02*
X147973748Y-105611386D01*
X147973748Y-105151767D01*
X148031200Y-105036862D01*
X148088652Y-104979410D01*
X148203557Y-104921958D01*
X148375914Y-104921958D01*
X148490819Y-104979410D01*
X148548271Y-105036862D01*
X148605724Y-105151767D01*
X148605724Y-105611386D01*
X149180248Y-104347434D02*
X149180248Y-104117624D01*
X149122795Y-104002719D01*
X149065343Y-103945267D01*
X148892986Y-103830362D01*
X148663176Y-103772910D01*
X148203557Y-103772910D01*
X148088652Y-103830362D01*
X148031200Y-103887815D01*
X147973748Y-104002719D01*
X147973748Y-104232529D01*
X148031200Y-104347434D01*
X148088652Y-104404886D01*
X148203557Y-104462338D01*
X148490819Y-104462338D01*
X148605724Y-104404886D01*
X148663176Y-104347434D01*
X148720629Y-104232529D01*
X148720629Y-104002719D01*
X148663176Y-103887815D01*
X148605724Y-103830362D01*
X148490819Y-103772910D01*
X140925148Y-95003700D02*
X140925148Y-95693128D01*
X140925148Y-95348414D02*
X139718648Y-95348414D01*
X139891005Y-95463319D01*
X140005910Y-95578224D01*
X140063362Y-95693128D01*
X140925148Y-94486628D02*
X139718648Y-94486628D01*
X140465529Y-94371723D02*
X140925148Y-94027009D01*
X140120814Y-94027009D02*
X140580433Y-94486628D01*
D19*
X144285910Y-90182095D02*
X144458267Y-90239548D01*
X144745529Y-90239548D01*
X144860433Y-90182095D01*
X144917886Y-90124643D01*
X144975338Y-90009738D01*
X144975338Y-89894833D01*
X144917886Y-89779929D01*
X144860433Y-89722476D01*
X144745529Y-89665024D01*
X144515719Y-89607571D01*
X144400814Y-89550119D01*
X144343362Y-89492667D01*
X144285910Y-89377762D01*
X144285910Y-89262857D01*
X144343362Y-89147952D01*
X144400814Y-89090500D01*
X144515719Y-89033048D01*
X144802981Y-89033048D01*
X144975338Y-89090500D01*
X145492410Y-89033048D02*
X145492410Y-90009738D01*
X145549862Y-90124643D01*
X145607315Y-90182095D01*
X145722219Y-90239548D01*
X145952029Y-90239548D01*
X146066934Y-90182095D01*
X146124386Y-90124643D01*
X146181838Y-90009738D01*
X146181838Y-89033048D01*
X146756362Y-90239548D02*
X146756362Y-89033048D01*
X147215981Y-89033048D01*
X147330886Y-89090500D01*
X147388338Y-89147952D01*
X147445790Y-89262857D01*
X147445790Y-89435214D01*
X147388338Y-89550119D01*
X147330886Y-89607571D01*
X147215981Y-89665024D01*
X146756362Y-89665024D01*
X147962862Y-90239548D02*
X147962862Y-89033048D01*
X148422481Y-89033048D01*
X148537386Y-89090500D01*
X148594838Y-89147952D01*
X148652290Y-89262857D01*
X148652290Y-89435214D01*
X148594838Y-89550119D01*
X148537386Y-89607571D01*
X148422481Y-89665024D01*
X147962862Y-89665024D01*
X149743886Y-90239548D02*
X149169362Y-90239548D01*
X149169362Y-89033048D01*
X150375861Y-89665024D02*
X150375861Y-90239548D01*
X149973695Y-89033048D02*
X150375861Y-89665024D01*
X150778028Y-89033048D01*
X151812171Y-90239548D02*
X151122743Y-90239548D01*
X151467457Y-90239548D02*
X151467457Y-89033048D01*
X151352552Y-89205405D01*
X151237647Y-89320310D01*
X151122743Y-89377762D01*
D21*
M02*
