M48
INCH,TZ
T1C0.024
T2C0.032
T3C0.036
T4C0.040
%
G90
G05
T1
X50147Y-46632
X51147Y-46632
X52147Y-46632
X52530Y-36213
X52530Y-37213
X52530Y-38213
X61467Y-43776
X62467Y-43776
X63467Y-43776
X65405Y-37963
X66405Y-37963
X67405Y-37963
T2
X49280Y-44026
X51280Y-44026
X52255Y-44088
X53055Y-44088
X53092Y-40588
X53092Y-42588
X57092Y-43963
X58092Y-42963
X58092Y-44963
X59280Y-39088
X60280Y-38088
X60280Y-40088
X66592Y-39901
X66592Y-45901
T3
X50280Y-37276
X50280Y-42276
X55280Y-35838
X55280Y-40838
X55280Y-41713
X55280Y-46713
X57342Y-36463
X57342Y-41463
X60967Y-35963
X63030Y-37713
X63030Y-42713
X65967Y-35963
T4
X50342Y-36276
X58780Y-36213
X59780Y-36213
X64155Y-46713
T0
M30
